solid 12_4_grid
facet normal -0.0 -0.0 1.0
  outer loop
    vertex 103.85073095828952 659.2509810806969 1.5
    vertex 108.35073095828952 663.7509810806969 1.5
    vertex 103.85073095828952 701.7509810806969 1.5
  endloop
endfacet
facet normal -0.0 -0.0 1.0
  outer loop
    vertex 108.35073095828952 663.7509810806969 1.5
    vertex 103.85073095828952 659.2509810806969 1.5
    vertex 146.3507309582895 659.2509810806969 1.5
  endloop
endfacet
facet normal -0.0 -0.0 1.0
  outer loop
    vertex 108.35073095828952 663.7509810806969 1.5
    vertex 146.3507309582895 659.2509810806969 1.5
    vertex 122.85073095828952 663.7509810806969 1.5
  endloop
endfacet
facet normal -0.0 -0.0 1.0
  outer loop
    vertex 122.85073095828952 663.7509810806969 1.5
    vertex 146.3507309582895 659.2509810806969 1.5
    vertex 127.3507309582895 663.7509810806969 1.5
  endloop
endfacet
facet normal -0.0 -0.0 1.0
  outer loop
    vertex 122.85073095828952 663.7509810806969 1.5
    vertex 127.3507309582895 663.7509810806969 1.5
    vertex 122.85073095828952 678.2509810806969 1.5
  endloop
endfacet
facet normal -0.0 -0.0 1.0
  outer loop
    vertex 122.85073095828952 678.2509810806969 1.5
    vertex 127.3507309582895 663.7509810806969 1.5
    vertex 122.85073095828952 682.7509810806969 1.5
  endloop
endfacet
facet normal -0.0 -0.0 1.0
  outer loop
    vertex 122.85073095828952 682.7509810806969 1.5
    vertex 127.3507309582895 663.7509810806969 1.5
    vertex 123.65184221885592 680.1127525130431 1.5
  endloop
endfacet
facet normal -0.0 -0.0 1.0
  outer loop
    vertex 122.85073095828952 682.7509810806969 1.5
    vertex 123.65184221885592 680.1127525130431 1.5
    vertex 123.60073095828952 680.5009810806969 1.5
  endloop
endfacet
facet normal -0.0 -0.0 1.0
  outer loop
    vertex 122.85073095828952 682.7509810806969 1.5
    vertex 123.60073095828952 680.5009810806969 1.5
    vertex 122.85073095828952 697.2509810806969 1.5
  endloop
endfacet
facet normal -0.0 -0.0 1.0
  outer loop
    vertex 123.65184221885592 680.1127525130431 1.5
    vertex 127.3507309582895 663.7509810806969 1.5
    vertex 123.80169285261287 679.7509810806969 1.5
  endloop
endfacet
facet normal -0.0 -0.0 1.0
  outer loop
    vertex 123.80169285261287 679.7509810806969 1.5
    vertex 127.3507309582895 663.7509810806969 1.5
    vertex 124.04007078650969 679.4403209089171 1.5
  endloop
endfacet
facet normal -0.0 -0.0 1.0
  outer loop
    vertex 124.04007078650969 679.4403209089171 1.5
    vertex 127.3507309582895 663.7509810806969 1.5
    vertex 124.3507309582895 679.2019429750202 1.5
  endloop
endfacet
facet normal -0.0 -0.0 1.0
  outer loop
    vertex 124.3507309582895 679.2019429750202 1.5
    vertex 127.3507309582895 663.7509810806969 1.5
    vertex 124.71250239063573 679.0520923412633 1.5
  endloop
endfacet
facet normal -0.0 -0.0 1.0
  outer loop
    vertex 124.71250239063573 679.0520923412633 1.5
    vertex 127.3507309582895 663.7509810806969 1.5
    vertex 125.10073095828952 679.0009810806969 1.5
  endloop
endfacet
facet normal -0.0 -0.0 1.0
  outer loop
    vertex 125.10073095828952 679.0009810806969 1.5
    vertex 127.3507309582895 663.7509810806969 1.5
    vertex 125.4889595259433 679.0520923412633 1.5
  endloop
endfacet
facet normal -0.0 -0.0 1.0
  outer loop
    vertex 125.4889595259433 679.0520923412633 1.5
    vertex 127.3507309582895 663.7509810806969 1.5
    vertex 125.8507309582895 679.2019429750202 1.5
  endloop
endfacet
facet normal -0.0 -0.0 1.0
  outer loop
    vertex 125.8507309582895 679.2019429750202 1.5
    vertex 127.3507309582895 663.7509810806969 1.5
    vertex 126.16139113006935 679.4403209089171 1.5
  endloop
endfacet
facet normal -0.0 -0.0 1.0
  outer loop
    vertex 126.16139113006935 679.4403209089171 1.5
    vertex 127.3507309582895 663.7509810806969 1.5
    vertex 126.39976906396616 679.7509810806969 1.5
  endloop
endfacet
facet normal -0.0 -0.0 1.0
  outer loop
    vertex 126.39976906396616 679.7509810806969 1.5
    vertex 127.3507309582895 663.7509810806969 1.5
    vertex 126.54961969772312 680.1127525130431 1.5
  endloop
endfacet
facet normal -0.0 -0.0 1.0
  outer loop
    vertex 126.54961969772312 680.1127525130431 1.5
    vertex 127.3507309582895 663.7509810806969 1.5
    vertex 126.60073095828952 680.5009810806969 1.5
  endloop
endfacet
facet normal -0.0 -0.0 1.0
  outer loop
    vertex 127.3507309582895 663.7509810806969 1.5
    vertex 146.3507309582895 659.2509810806969 1.5
    vertex 141.8507309582895 663.7509810806969 1.5
  endloop
endfacet
facet normal -0.0 -0.0 1.0
  outer loop
    vertex 141.8507309582895 663.7509810806969 1.5
    vertex 146.3507309582895 659.2509810806969 1.5
    vertex 141.8507309582895 678.2509810806969 1.5
  endloop
endfacet
facet normal -0.0 -0.0 1.0
  outer loop
    vertex 141.8507309582895 678.2509810806969 1.5
    vertex 146.3507309582895 659.2509810806969 1.5
    vertex 141.8507309582895 682.7509810806969 1.5
  endloop
endfacet
facet normal -0.0 -0.0 1.0
  outer loop
    vertex 141.8507309582895 682.7509810806969 1.5
    vertex 146.3507309582895 659.2509810806969 1.5
    vertex 141.8507309582895 697.2509810806969 1.5
  endloop
endfacet
facet normal -0.0 -0.0 1.0
  outer loop
    vertex 103.85073095828952 701.7509810806969 1.5
    vertex 108.35073095828952 697.2509810806969 1.5
    vertex 146.3507309582895 701.7509810806969 1.5
  endloop
endfacet
facet normal -0.0 -0.0 1.0
  outer loop
    vertex 108.35073095828952 697.2509810806969 1.5
    vertex 103.85073095828952 701.7509810806969 1.5
    vertex 108.35073095828952 663.7509810806969 1.5
  endloop
endfacet
facet normal -0.0 -0.0 1.0
  outer loop
    vertex 108.35073095828952 697.2509810806969 1.5
    vertex 108.35073095828952 663.7509810806969 1.5
    vertex 108.35073095828952 678.2509810806969 1.5
  endloop
endfacet
facet normal -0.0 -0.0 1.0
  outer loop
    vertex 108.35073095828952 697.2509810806969 1.5
    vertex 108.35073095828952 678.2509810806969 1.5
    vertex 108.35073095828952 682.7509810806969 1.5
  endloop
endfacet
facet normal -0.0 -0.0 1.0
  outer loop
    vertex 146.3507309582895 701.7509810806969 1.5
    vertex 108.35073095828952 697.2509810806969 1.5
    vertex 122.85073095828952 697.2509810806969 1.5
  endloop
endfacet
facet normal -0.0 -0.0 1.0
  outer loop
    vertex 146.3507309582895 701.7509810806969 1.5
    vertex 122.85073095828952 697.2509810806969 1.5
    vertex 127.3507309582895 697.2509810806969 1.5
  endloop
endfacet
facet normal -0.0 -0.0 1.0
  outer loop
    vertex 127.3507309582895 697.2509810806969 1.5
    vertex 122.85073095828952 697.2509810806969 1.5
    vertex 123.65184221885592 680.8892096483507 1.5
  endloop
endfacet
facet normal -0.0 -0.0 1.0
  outer loop
    vertex 123.65184221885592 680.8892096483507 1.5
    vertex 122.85073095828952 697.2509810806969 1.5
    vertex 123.60073095828952 680.5009810806969 1.5
  endloop
endfacet
facet normal -0.0 -0.0 1.0
  outer loop
    vertex 127.3507309582895 697.2509810806969 1.5
    vertex 123.65184221885592 680.8892096483507 1.5
    vertex 123.80169285261287 681.2509810806969 1.5
  endloop
endfacet
facet normal -0.0 -0.0 1.0
  outer loop
    vertex 127.3507309582895 697.2509810806969 1.5
    vertex 123.80169285261287 681.2509810806969 1.5
    vertex 124.04007078650969 681.5616412524768 1.5
  endloop
endfacet
facet normal -0.0 -0.0 1.0
  outer loop
    vertex 127.3507309582895 697.2509810806969 1.5
    vertex 124.04007078650969 681.5616412524768 1.5
    vertex 124.35073095828953 681.8000191863736 1.5
  endloop
endfacet
facet normal -0.0 -0.0 1.0
  outer loop
    vertex 127.3507309582895 697.2509810806969 1.5
    vertex 124.35073095828953 681.8000191863736 1.5
    vertex 124.71250239063573 681.9498698201305 1.5
  endloop
endfacet
facet normal -0.0 -0.0 1.0
  outer loop
    vertex 127.3507309582895 697.2509810806969 1.5
    vertex 124.71250239063573 681.9498698201305 1.5
    vertex 125.10073095828952 682.000981080697 1.5
  endloop
endfacet
facet normal -0.0 -0.0 1.0
  outer loop
    vertex 127.3507309582895 697.2509810806969 1.5
    vertex 125.10073095828952 682.000981080697 1.5
    vertex 125.4889595259433 681.9498698201305 1.5
  endloop
endfacet
facet normal -0.0 -0.0 1.0
  outer loop
    vertex 127.3507309582895 697.2509810806969 1.5
    vertex 125.4889595259433 681.9498698201305 1.5
    vertex 125.85073095828953 681.8000191863736 1.5
  endloop
endfacet
facet normal -0.0 -0.0 1.0
  outer loop
    vertex 127.3507309582895 697.2509810806969 1.5
    vertex 125.85073095828953 681.8000191863736 1.5
    vertex 126.16139113006935 681.5616412524768 1.5
  endloop
endfacet
facet normal -0.0 -0.0 1.0
  outer loop
    vertex 127.3507309582895 697.2509810806969 1.5
    vertex 126.16139113006935 681.5616412524768 1.5
    vertex 126.39976906396616 681.2509810806969 1.5
  endloop
endfacet
facet normal -0.0 -0.0 1.0
  outer loop
    vertex 127.3507309582895 697.2509810806969 1.5
    vertex 126.39976906396616 681.2509810806969 1.5
    vertex 126.54961969772312 680.8892096483507 1.5
  endloop
endfacet
facet normal -0.0 -0.0 1.0
  outer loop
    vertex 127.3507309582895 697.2509810806969 1.5
    vertex 126.54961969772312 680.8892096483507 1.5
    vertex 126.60073095828952 680.5009810806969 1.5
  endloop
endfacet
facet normal -0.0 -0.0 1.0
  outer loop
    vertex 127.3507309582895 697.2509810806969 1.5
    vertex 126.60073095828952 680.5009810806969 1.5
    vertex 127.3507309582895 663.7509810806969 1.5
  endloop
endfacet
facet normal -0.0 -0.0 1.0
  outer loop
    vertex 127.3507309582895 697.2509810806969 1.5
    vertex 127.3507309582895 663.7509810806969 1.5
    vertex 127.3507309582895 678.2509810806969 1.5
  endloop
endfacet
facet normal -0.0 -0.0 1.0
  outer loop
    vertex 127.3507309582895 697.2509810806969 1.5
    vertex 127.3507309582895 678.2509810806969 1.5
    vertex 127.3507309582895 682.7509810806969 1.5
  endloop
endfacet
facet normal -0.0 -0.0 1.0
  outer loop
    vertex 146.3507309582895 701.7509810806969 1.5
    vertex 127.3507309582895 697.2509810806969 1.5
    vertex 141.8507309582895 697.2509810806969 1.5
  endloop
endfacet
facet normal -0.0 -0.0 1.0
  outer loop
    vertex 146.3507309582895 701.7509810806969 1.5
    vertex 141.8507309582895 697.2509810806969 1.5
    vertex 146.3507309582895 659.2509810806969 1.5
  endloop
endfacet
facet normal -0.0 -0.0 1.0
  outer loop
    vertex 141.8507309582895 678.2509810806969 1.5
    vertex 127.3507309582895 682.7509810806969 1.5
    vertex 127.3507309582895 678.2509810806969 1.5
  endloop
endfacet
facet normal -0.0 -0.0 1.0
  outer loop
    vertex 127.3507309582895 682.7509810806969 1.5
    vertex 141.8507309582895 678.2509810806969 1.5
    vertex 141.8507309582895 682.7509810806969 1.5
  endloop
endfacet
facet normal -0.0 -0.0 1.0
  outer loop
    vertex 122.85073095828952 678.2509810806969 1.5
    vertex 108.35073095828952 682.7509810806969 1.5
    vertex 108.35073095828952 678.2509810806969 1.5
  endloop
endfacet
facet normal -0.0 -0.0 1.0
  outer loop
    vertex 108.35073095828952 682.7509810806969 1.5
    vertex 122.85073095828952 678.2509810806969 1.5
    vertex 122.85073095828952 682.7509810806969 1.5
  endloop
endfacet
facet normal -0.0 1.0 0.0
  outer loop
    vertex 103.85073095828952 701.7509810806969 1.5
    vertex 146.3507309582895 701.7509810806969 0.0
    vertex 103.85073095828952 701.7509810806969 0.0
  endloop
endfacet
facet normal -0.0 1.0 0.0
  outer loop
    vertex 146.3507309582895 701.7509810806969 0.0
    vertex 103.85073095828952 701.7509810806969 1.5
    vertex 146.3507309582895 701.7509810806969 1.5
  endloop
endfacet
facet normal -0.0 -1.0 -0.0
  outer loop
    vertex 146.3507309582895 659.2509810806969 1.5
    vertex 103.85073095828952 659.2509810806969 0.0
    vertex 146.3507309582895 659.2509810806969 0.0
  endloop
endfacet
facet normal -0.0 -1.0 -0.0
  outer loop
    vertex 103.85073095828952 659.2509810806969 0.0
    vertex 146.3507309582895 659.2509810806969 1.5
    vertex 103.85073095828952 659.2509810806969 1.5
  endloop
endfacet
facet normal -1.0 0.0 0.0
  outer loop
    vertex 103.85073095828952 701.7509810806969 1.5
    vertex 103.85073095828952 659.2509810806969 0.0
    vertex 103.85073095828952 659.2509810806969 1.5
  endloop
endfacet
facet normal -1.0 0.0 0.0
  outer loop
    vertex 103.85073095828952 659.2509810806969 0.0
    vertex 103.85073095828952 701.7509810806969 1.5
    vertex 103.85073095828952 701.7509810806969 0.0
  endloop
endfacet
facet normal 1.0 0.0 0.0
  outer loop
    vertex 146.3507309582895 701.7509810806969 0.0
    vertex 146.3507309582895 659.2509810806969 1.5
    vertex 146.3507309582895 659.2509810806969 0.0
  endloop
endfacet
facet normal 1.0 0.0 0.0
  outer loop
    vertex 146.3507309582895 659.2509810806969 1.5
    vertex 146.3507309582895 701.7509810806969 0.0
    vertex 146.3507309582895 701.7509810806969 1.5
  endloop
endfacet
facet normal -1.0 0.0 0.0
  outer loop
    vertex 122.85073095828952 697.2509810806969 1.5
    vertex 122.85073095828952 682.7509810806969 0.0
    vertex 122.85073095828952 682.7509810806969 1.5
  endloop
endfacet
facet normal -1.0 0.0 0.0
  outer loop
    vertex 122.85073095828952 682.7509810806969 0.0
    vertex 122.85073095828952 697.2509810806969 1.5
    vertex 122.85073095828952 697.2509810806969 0.0
  endloop
endfacet
facet normal -1.0 0.0 0.0
  outer loop
    vertex 141.8507309582895 678.2509810806969 1.5
    vertex 141.8507309582895 663.7509810806969 0.0
    vertex 141.8507309582895 663.7509810806969 1.5
  endloop
endfacet
facet normal -1.0 0.0 0.0
  outer loop
    vertex 141.8507309582895 663.7509810806969 0.0
    vertex 141.8507309582895 678.2509810806969 1.5
    vertex 141.8507309582895 678.2509810806969 0.0
  endloop
endfacet
facet normal -0.0 -1.0 -0.0
  outer loop
    vertex 122.85073095828952 697.2509810806969 1.5
    vertex 108.35073095828952 697.2509810806969 0.0
    vertex 122.85073095828952 697.2509810806969 0.0
  endloop
endfacet
facet normal -0.0 -1.0 -0.0
  outer loop
    vertex 108.35073095828952 697.2509810806969 0.0
    vertex 122.85073095828952 697.2509810806969 1.5
    vertex 108.35073095828952 697.2509810806969 1.5
  endloop
endfacet
facet normal 1.0 0.0 0.0
  outer loop
    vertex 108.35073095828952 697.2509810806969 0.0
    vertex 108.35073095828952 682.7509810806969 1.5
    vertex 108.35073095828952 682.7509810806969 0.0
  endloop
endfacet
facet normal 1.0 0.0 0.0
  outer loop
    vertex 108.35073095828952 682.7509810806969 1.5
    vertex 108.35073095828952 697.2509810806969 0.0
    vertex 108.35073095828952 697.2509810806969 1.5
  endloop
endfacet
facet normal -0.0 1.0 0.0
  outer loop
    vertex 108.35073095828952 682.7509810806969 1.5
    vertex 122.85073095828952 682.7509810806969 0.0
    vertex 108.35073095828952 682.7509810806969 0.0
  endloop
endfacet
facet normal -0.0 1.0 0.0
  outer loop
    vertex 122.85073095828952 682.7509810806969 0.0
    vertex 108.35073095828952 682.7509810806969 1.5
    vertex 122.85073095828952 682.7509810806969 1.5
  endloop
endfacet
facet normal 0.0 0.0 -1.0
  outer loop
    vertex 103.85073095828952 701.7509810806969 0.0
    vertex 108.35073095828952 697.2509810806969 0.0
    vertex 103.85073095828952 659.2509810806969 0.0
  endloop
endfacet
facet normal 0.0 0.0 -1.0
  outer loop
    vertex 108.35073095828952 697.2509810806969 0.0
    vertex 103.85073095828952 701.7509810806969 0.0
    vertex 146.3507309582895 701.7509810806969 0.0
  endloop
endfacet
facet normal 0.0 0.0 -1.0
  outer loop
    vertex 108.35073095828952 697.2509810806969 0.0
    vertex 146.3507309582895 701.7509810806969 0.0
    vertex 122.85073095828952 697.2509810806969 0.0
  endloop
endfacet
facet normal 0.0 0.0 -1.0
  outer loop
    vertex 122.85073095828952 697.2509810806969 0.0
    vertex 146.3507309582895 701.7509810806969 0.0
    vertex 127.3507309582895 697.2509810806969 0.0
  endloop
endfacet
facet normal 0.0 0.0 -1.0
  outer loop
    vertex 122.85073095828952 697.2509810806969 0.0
    vertex 127.3507309582895 697.2509810806969 0.0
    vertex 122.85073095828952 682.7509810806969 0.0
  endloop
endfacet
facet normal 0.0 0.0 -1.0
  outer loop
    vertex 122.85073095828952 682.7509810806969 0.0
    vertex 127.3507309582895 697.2509810806969 0.0
    vertex 122.85073095828952 678.2509810806969 0.0
  endloop
endfacet
facet normal 0.0 0.0 -1.0
  outer loop
    vertex 122.85073095828952 678.2509810806969 0.0
    vertex 127.3507309582895 697.2509810806969 0.0
    vertex 123.65184221885592 680.8892096483507 0.0
  endloop
endfacet
facet normal 0.0 0.0 -1.0
  outer loop
    vertex 122.85073095828952 678.2509810806969 0.0
    vertex 123.65184221885592 680.8892096483507 0.0
    vertex 123.60073095828952 680.5009810806969 0.0
  endloop
endfacet
facet normal 0.0 0.0 -1.0
  outer loop
    vertex 122.85073095828952 678.2509810806969 0.0
    vertex 123.60073095828952 680.5009810806969 0.0
    vertex 122.85073095828952 663.7509810806969 0.0
  endloop
endfacet
facet normal 0.0 0.0 -1.0
  outer loop
    vertex 123.65184221885592 680.8892096483507 0.0
    vertex 127.3507309582895 697.2509810806969 0.0
    vertex 123.80169285261287 681.2509810806969 0.0
  endloop
endfacet
facet normal 0.0 0.0 -1.0
  outer loop
    vertex 123.80169285261287 681.2509810806969 0.0
    vertex 127.3507309582895 697.2509810806969 0.0
    vertex 124.04007078650969 681.5616412524768 0.0
  endloop
endfacet
facet normal 0.0 0.0 -1.0
  outer loop
    vertex 124.04007078650969 681.5616412524768 0.0
    vertex 127.3507309582895 697.2509810806969 0.0
    vertex 124.35073095828953 681.8000191863736 0.0
  endloop
endfacet
facet normal 0.0 0.0 -1.0
  outer loop
    vertex 124.35073095828953 681.8000191863736 0.0
    vertex 127.3507309582895 697.2509810806969 0.0
    vertex 124.71250239063573 681.9498698201305 0.0
  endloop
endfacet
facet normal 0.0 0.0 -1.0
  outer loop
    vertex 124.71250239063573 681.9498698201305 0.0
    vertex 127.3507309582895 697.2509810806969 0.0
    vertex 125.10073095828952 682.000981080697 0.0
  endloop
endfacet
facet normal 0.0 0.0 -1.0
  outer loop
    vertex 125.10073095828952 682.000981080697 0.0
    vertex 127.3507309582895 697.2509810806969 0.0
    vertex 125.4889595259433 681.9498698201305 0.0
  endloop
endfacet
facet normal 0.0 0.0 -1.0
  outer loop
    vertex 125.4889595259433 681.9498698201305 0.0
    vertex 127.3507309582895 697.2509810806969 0.0
    vertex 125.85073095828953 681.8000191863736 0.0
  endloop
endfacet
facet normal 0.0 0.0 -1.0
  outer loop
    vertex 125.85073095828953 681.8000191863736 0.0
    vertex 127.3507309582895 697.2509810806969 0.0
    vertex 126.16139113006935 681.5616412524768 0.0
  endloop
endfacet
facet normal 0.0 0.0 -1.0
  outer loop
    vertex 126.16139113006935 681.5616412524768 0.0
    vertex 127.3507309582895 697.2509810806969 0.0
    vertex 126.39976906396616 681.2509810806969 0.0
  endloop
endfacet
facet normal 0.0 0.0 -1.0
  outer loop
    vertex 126.39976906396616 681.2509810806969 0.0
    vertex 127.3507309582895 697.2509810806969 0.0
    vertex 126.54961969772312 680.8892096483507 0.0
  endloop
endfacet
facet normal 0.0 0.0 -1.0
  outer loop
    vertex 126.54961969772312 680.8892096483507 0.0
    vertex 127.3507309582895 697.2509810806969 0.0
    vertex 126.60073095828952 680.5009810806969 0.0
  endloop
endfacet
facet normal 0.0 0.0 -1.0
  outer loop
    vertex 127.3507309582895 697.2509810806969 0.0
    vertex 146.3507309582895 701.7509810806969 0.0
    vertex 141.8507309582895 697.2509810806969 0.0
  endloop
endfacet
facet normal 0.0 0.0 -1.0
  outer loop
    vertex 141.8507309582895 697.2509810806969 0.0
    vertex 146.3507309582895 701.7509810806969 0.0
    vertex 141.8507309582895 682.7509810806969 0.0
  endloop
endfacet
facet normal 0.0 0.0 -1.0
  outer loop
    vertex 141.8507309582895 682.7509810806969 0.0
    vertex 146.3507309582895 701.7509810806969 0.0
    vertex 141.8507309582895 678.2509810806969 0.0
  endloop
endfacet
facet normal 0.0 0.0 -1.0
  outer loop
    vertex 141.8507309582895 678.2509810806969 0.0
    vertex 146.3507309582895 701.7509810806969 0.0
    vertex 141.8507309582895 663.7509810806969 0.0
  endloop
endfacet
facet normal 0.0 0.0 -1.0
  outer loop
    vertex 103.85073095828952 659.2509810806969 0.0
    vertex 108.35073095828952 663.7509810806969 0.0
    vertex 146.3507309582895 659.2509810806969 0.0
  endloop
endfacet
facet normal 0.0 0.0 -1.0
  outer loop
    vertex 108.35073095828952 663.7509810806969 0.0
    vertex 103.85073095828952 659.2509810806969 0.0
    vertex 108.35073095828952 697.2509810806969 0.0
  endloop
endfacet
facet normal 0.0 0.0 -1.0
  outer loop
    vertex 108.35073095828952 663.7509810806969 0.0
    vertex 108.35073095828952 697.2509810806969 0.0
    vertex 108.35073095828952 682.7509810806969 0.0
  endloop
endfacet
facet normal 0.0 0.0 -1.0
  outer loop
    vertex 108.35073095828952 663.7509810806969 0.0
    vertex 108.35073095828952 682.7509810806969 0.0
    vertex 108.35073095828952 678.2509810806969 0.0
  endloop
endfacet
facet normal 0.0 0.0 -1.0
  outer loop
    vertex 146.3507309582895 659.2509810806969 0.0
    vertex 108.35073095828952 663.7509810806969 0.0
    vertex 122.85073095828952 663.7509810806969 0.0
  endloop
endfacet
facet normal 0.0 0.0 -1.0
  outer loop
    vertex 146.3507309582895 659.2509810806969 0.0
    vertex 122.85073095828952 663.7509810806969 0.0
    vertex 127.3507309582895 663.7509810806969 0.0
  endloop
endfacet
facet normal 0.0 0.0 -1.0
  outer loop
    vertex 127.3507309582895 663.7509810806969 0.0
    vertex 122.85073095828952 663.7509810806969 0.0
    vertex 123.65184221885592 680.1127525130431 0.0
  endloop
endfacet
facet normal 0.0 0.0 -1.0
  outer loop
    vertex 123.65184221885592 680.1127525130431 0.0
    vertex 122.85073095828952 663.7509810806969 0.0
    vertex 123.60073095828952 680.5009810806969 0.0
  endloop
endfacet
facet normal 0.0 0.0 -1.0
  outer loop
    vertex 127.3507309582895 663.7509810806969 0.0
    vertex 123.65184221885592 680.1127525130431 0.0
    vertex 123.80169285261287 679.7509810806969 0.0
  endloop
endfacet
facet normal 0.0 0.0 -1.0
  outer loop
    vertex 127.3507309582895 663.7509810806969 0.0
    vertex 123.80169285261287 679.7509810806969 0.0
    vertex 124.04007078650969 679.4403209089171 0.0
  endloop
endfacet
facet normal 0.0 0.0 -1.0
  outer loop
    vertex 127.3507309582895 663.7509810806969 0.0
    vertex 124.04007078650969 679.4403209089171 0.0
    vertex 124.3507309582895 679.2019429750202 0.0
  endloop
endfacet
facet normal 0.0 0.0 -1.0
  outer loop
    vertex 127.3507309582895 663.7509810806969 0.0
    vertex 124.3507309582895 679.2019429750202 0.0
    vertex 124.71250239063573 679.0520923412633 0.0
  endloop
endfacet
facet normal 0.0 0.0 -1.0
  outer loop
    vertex 127.3507309582895 663.7509810806969 0.0
    vertex 124.71250239063573 679.0520923412633 0.0
    vertex 125.10073095828952 679.0009810806969 0.0
  endloop
endfacet
facet normal 0.0 0.0 -1.0
  outer loop
    vertex 127.3507309582895 663.7509810806969 0.0
    vertex 125.10073095828952 679.0009810806969 0.0
    vertex 125.4889595259433 679.0520923412633 0.0
  endloop
endfacet
facet normal 0.0 0.0 -1.0
  outer loop
    vertex 127.3507309582895 663.7509810806969 0.0
    vertex 125.4889595259433 679.0520923412633 0.0
    vertex 125.8507309582895 679.2019429750202 0.0
  endloop
endfacet
facet normal 0.0 0.0 -1.0
  outer loop
    vertex 127.3507309582895 663.7509810806969 0.0
    vertex 125.8507309582895 679.2019429750202 0.0
    vertex 126.16139113006935 679.4403209089171 0.0
  endloop
endfacet
facet normal 0.0 0.0 -1.0
  outer loop
    vertex 127.3507309582895 663.7509810806969 0.0
    vertex 126.16139113006935 679.4403209089171 0.0
    vertex 126.39976906396616 679.7509810806969 0.0
  endloop
endfacet
facet normal 0.0 0.0 -1.0
  outer loop
    vertex 127.3507309582895 663.7509810806969 0.0
    vertex 126.39976906396616 679.7509810806969 0.0
    vertex 126.54961969772312 680.1127525130431 0.0
  endloop
endfacet
facet normal 0.0 0.0 -1.0
  outer loop
    vertex 127.3507309582895 663.7509810806969 0.0
    vertex 126.54961969772312 680.1127525130431 0.0
    vertex 126.60073095828952 680.5009810806969 0.0
  endloop
endfacet
facet normal 0.0 0.0 -1.0
  outer loop
    vertex 127.3507309582895 663.7509810806969 0.0
    vertex 126.60073095828952 680.5009810806969 0.0
    vertex 127.3507309582895 697.2509810806969 0.0
  endloop
endfacet
facet normal 0.0 0.0 -1.0
  outer loop
    vertex 127.3507309582895 663.7509810806969 0.0
    vertex 127.3507309582895 697.2509810806969 0.0
    vertex 127.3507309582895 682.7509810806969 0.0
  endloop
endfacet
facet normal 0.0 0.0 -1.0
  outer loop
    vertex 127.3507309582895 663.7509810806969 0.0
    vertex 127.3507309582895 682.7509810806969 0.0
    vertex 127.3507309582895 678.2509810806969 0.0
  endloop
endfacet
facet normal 0.0 0.0 -1.0
  outer loop
    vertex 146.3507309582895 659.2509810806969 0.0
    vertex 127.3507309582895 663.7509810806969 0.0
    vertex 141.8507309582895 663.7509810806969 0.0
  endloop
endfacet
facet normal 0.0 0.0 -1.0
  outer loop
    vertex 146.3507309582895 659.2509810806969 0.0
    vertex 141.8507309582895 663.7509810806969 0.0
    vertex 146.3507309582895 701.7509810806969 0.0
  endloop
endfacet
facet normal 0.0 0.0 -1.0
  outer loop
    vertex 141.8507309582895 682.7509810806969 0.0
    vertex 127.3507309582895 678.2509810806969 0.0
    vertex 127.3507309582895 682.7509810806969 0.0
  endloop
endfacet
facet normal 0.0 0.0 -1.0
  outer loop
    vertex 127.3507309582895 678.2509810806969 0.0
    vertex 141.8507309582895 682.7509810806969 0.0
    vertex 141.8507309582895 678.2509810806969 0.0
  endloop
endfacet
facet normal 0.0 0.0 -1.0
  outer loop
    vertex 122.85073095828952 682.7509810806969 0.0
    vertex 108.35073095828952 678.2509810806969 0.0
    vertex 108.35073095828952 682.7509810806969 0.0
  endloop
endfacet
facet normal 0.0 0.0 -1.0
  outer loop
    vertex 108.35073095828952 678.2509810806969 0.0
    vertex 122.85073095828952 682.7509810806969 0.0
    vertex 122.85073095828952 678.2509810806969 0.0
  endloop
endfacet
facet normal -1.0 0.0 0.0
  outer loop
    vertex 141.8507309582895 697.2509810806969 1.5
    vertex 141.8507309582895 682.7509810806969 0.0
    vertex 141.8507309582895 682.7509810806969 1.5
  endloop
endfacet
facet normal -1.0 0.0 0.0
  outer loop
    vertex 141.8507309582895 682.7509810806969 0.0
    vertex 141.8507309582895 697.2509810806969 1.5
    vertex 141.8507309582895 697.2509810806969 0.0
  endloop
endfacet
facet normal -0.0 -1.0 -0.0
  outer loop
    vertex 141.8507309582895 697.2509810806969 1.5
    vertex 127.3507309582895 697.2509810806969 0.0
    vertex 141.8507309582895 697.2509810806969 0.0
  endloop
endfacet
facet normal -0.0 -1.0 -0.0
  outer loop
    vertex 127.3507309582895 697.2509810806969 0.0
    vertex 141.8507309582895 697.2509810806969 1.5
    vertex 127.3507309582895 697.2509810806969 1.5
  endloop
endfacet
facet normal 1.0 0.0 0.0
  outer loop
    vertex 127.3507309582895 697.2509810806969 0.0
    vertex 127.3507309582895 682.7509810806969 1.5
    vertex 127.3507309582895 682.7509810806969 0.0
  endloop
endfacet
facet normal 1.0 0.0 0.0
  outer loop
    vertex 127.3507309582895 682.7509810806969 1.5
    vertex 127.3507309582895 697.2509810806969 0.0
    vertex 127.3507309582895 697.2509810806969 1.5
  endloop
endfacet
facet normal -0.0 1.0 0.0
  outer loop
    vertex 127.3507309582895 682.7509810806969 1.5
    vertex 141.8507309582895 682.7509810806969 0.0
    vertex 127.3507309582895 682.7509810806969 0.0
  endloop
endfacet
facet normal -0.0 1.0 0.0
  outer loop
    vertex 141.8507309582895 682.7509810806969 0.0
    vertex 127.3507309582895 682.7509810806969 1.5
    vertex 141.8507309582895 682.7509810806969 1.5
  endloop
endfacet
facet normal -0.0 -1.0 -0.0
  outer loop
    vertex 141.8507309582895 678.2509810806969 1.5
    vertex 127.3507309582895 678.2509810806969 0.0
    vertex 141.8507309582895 678.2509810806969 0.0
  endloop
endfacet
facet normal -0.0 -1.0 -0.0
  outer loop
    vertex 127.3507309582895 678.2509810806969 0.0
    vertex 141.8507309582895 678.2509810806969 1.5
    vertex 127.3507309582895 678.2509810806969 1.5
  endloop
endfacet
facet normal -0.7933533402912196 0.6087614290087409 0.0
  outer loop
    vertex 126.39976906396616 679.7509810806969 1.5
    vertex 126.16139113006935 679.4403209089171 0.0
    vertex 126.16139113006935 679.4403209089171 1.5
  endloop
endfacet
facet normal -0.7933533402912196 0.6087614290087409 0.0
  outer loop
    vertex 126.16139113006935 679.4403209089171 0.0
    vertex 126.39976906396616 679.7509810806969 1.5
    vertex 126.39976906396616 679.7509810806969 0.0
  endloop
endfacet
facet normal -0.9238795325112762 0.3826834323651156 0.0
  outer loop
    vertex 126.54961969772312 680.1127525130431 1.5
    vertex 126.39976906396616 679.7509810806969 0.0
    vertex 126.39976906396616 679.7509810806969 1.5
  endloop
endfacet
facet normal -0.9238795325112762 0.3826834323651156 0.0
  outer loop
    vertex 126.39976906396616 679.7509810806969 0.0
    vertex 126.54961969772312 680.1127525130431 1.5
    vertex 126.54961969772312 680.1127525130431 0.0
  endloop
endfacet
facet normal -1.0 0.0 0.0
  outer loop
    vertex 122.85073095828952 678.2509810806969 1.5
    vertex 122.85073095828952 663.7509810806969 0.0
    vertex 122.85073095828952 663.7509810806969 1.5
  endloop
endfacet
facet normal -1.0 0.0 0.0
  outer loop
    vertex 122.85073095828952 663.7509810806969 0.0
    vertex 122.85073095828952 678.2509810806969 1.5
    vertex 122.85073095828952 678.2509810806969 0.0
  endloop
endfacet
facet normal 1.0 0.0 0.0
  outer loop
    vertex 127.3507309582895 678.2509810806969 0.0
    vertex 127.3507309582895 663.7509810806969 1.5
    vertex 127.3507309582895 663.7509810806969 0.0
  endloop
endfacet
facet normal 1.0 0.0 0.0
  outer loop
    vertex 127.3507309582895 663.7509810806969 1.5
    vertex 127.3507309582895 678.2509810806969 0.0
    vertex 127.3507309582895 678.2509810806969 1.5
  endloop
endfacet
facet normal -0.0 1.0 0.0
  outer loop
    vertex 127.3507309582895 663.7509810806969 1.5
    vertex 141.8507309582895 663.7509810806969 0.0
    vertex 127.3507309582895 663.7509810806969 0.0
  endloop
endfacet
facet normal -0.0 1.0 0.0
  outer loop
    vertex 141.8507309582895 663.7509810806969 0.0
    vertex 127.3507309582895 663.7509810806969 1.5
    vertex 141.8507309582895 663.7509810806969 1.5
  endloop
endfacet
facet normal -0.38268343236506647 0.9238795325112966 0.0
  outer loop
    vertex 125.4889595259433 679.0520923412633 1.5
    vertex 125.8507309582895 679.2019429750202 0.0
    vertex 125.4889595259433 679.0520923412633 0.0
  endloop
endfacet
facet normal -0.38268343236506647 0.9238795325112966 0.0
  outer loop
    vertex 125.8507309582895 679.2019429750202 0.0
    vertex 125.4889595259433 679.0520923412633 1.5
    vertex 125.8507309582895 679.2019429750202 1.5
  endloop
endfacet
facet normal 1.0 0.0 0.0
  outer loop
    vertex 108.35073095828952 678.2509810806969 0.0
    vertex 108.35073095828952 663.7509810806969 1.5
    vertex 108.35073095828952 663.7509810806969 0.0
  endloop
endfacet
facet normal 1.0 0.0 0.0
  outer loop
    vertex 108.35073095828952 663.7509810806969 1.5
    vertex 108.35073095828952 678.2509810806969 0.0
    vertex 108.35073095828952 678.2509810806969 1.5
  endloop
endfacet
facet normal -0.0 1.0 0.0
  outer loop
    vertex 108.35073095828952 663.7509810806969 1.5
    vertex 122.85073095828952 663.7509810806969 0.0
    vertex 108.35073095828952 663.7509810806969 0.0
  endloop
endfacet
facet normal -0.0 1.0 0.0
  outer loop
    vertex 122.85073095828952 663.7509810806969 0.0
    vertex 108.35073095828952 663.7509810806969 1.5
    vertex 122.85073095828952 663.7509810806969 1.5
  endloop
endfacet
facet normal -0.0 -1.0 -0.0
  outer loop
    vertex 122.85073095828952 678.2509810806969 1.5
    vertex 108.35073095828952 678.2509810806969 0.0
    vertex 122.85073095828952 678.2509810806969 0.0
  endloop
endfacet
facet normal -0.0 -1.0 -0.0
  outer loop
    vertex 108.35073095828952 678.2509810806969 0.0
    vertex 122.85073095828952 678.2509810806969 1.5
    vertex 108.35073095828952 678.2509810806969 1.5
  endloop
endfacet
facet normal -0.6087614290087577 0.7933533402912069 0.0
  outer loop
    vertex 125.8507309582895 679.2019429750202 1.5
    vertex 126.16139113006935 679.4403209089171 0.0
    vertex 125.8507309582895 679.2019429750202 0.0
  endloop
endfacet
facet normal -0.6087614290087577 0.7933533402912069 0.0
  outer loop
    vertex 126.16139113006935 679.4403209089171 0.0
    vertex 125.8507309582895 679.2019429750202 1.5
    vertex 126.16139113006935 679.4403209089171 1.5
  endloop
endfacet
facet normal 0.9914448613738123 -0.13052619222003808 0.0
  outer loop
    vertex 123.65184221885592 680.8892096483507 0.0
    vertex 123.60073095828952 680.5009810806969 1.5
    vertex 123.60073095828952 680.5009810806969 0.0
  endloop
endfacet
facet normal 0.9914448613738123 -0.13052619222003808 0.0
  outer loop
    vertex 123.60073095828952 680.5009810806969 1.5
    vertex 123.65184221885592 680.8892096483507 0.0
    vertex 123.65184221885592 680.8892096483507 1.5
  endloop
endfacet
facet normal 0.9914448613738123 0.13052619222003808 0.0
  outer loop
    vertex 123.60073095828952 680.5009810806969 0.0
    vertex 123.65184221885592 680.1127525130431 1.5
    vertex 123.65184221885592 680.1127525130431 0.0
  endloop
endfacet
facet normal 0.9914448613738123 0.13052619222003808 0.0
  outer loop
    vertex 123.65184221885592 680.1127525130431 1.5
    vertex 123.60073095828952 680.5009810806969 0.0
    vertex 123.60073095828952 680.5009810806969 1.5
  endloop
endfacet
facet normal 0.13052619222010217 -0.9914448613738039 0.0
  outer loop
    vertex 125.10073095828952 682.000981080697 1.5
    vertex 124.71250239063573 681.9498698201305 0.0
    vertex 125.10073095828952 682.000981080697 0.0
  endloop
endfacet
facet normal 0.13052619222010217 -0.9914448613738039 0.0
  outer loop
    vertex 124.71250239063573 681.9498698201305 0.0
    vertex 125.10073095828952 682.000981080697 1.5
    vertex 124.71250239063573 681.9498698201305 1.5
  endloop
endfacet
facet normal 0.7933533402912196 -0.6087614290087409 0.0
  outer loop
    vertex 124.04007078650969 681.5616412524768 0.0
    vertex 123.80169285261287 681.2509810806969 1.5
    vertex 123.80169285261287 681.2509810806969 0.0
  endloop
endfacet
facet normal 0.7933533402912196 -0.6087614290087409 0.0
  outer loop
    vertex 123.80169285261287 681.2509810806969 1.5
    vertex 124.04007078650969 681.5616412524768 0.0
    vertex 124.04007078650969 681.5616412524768 1.5
  endloop
endfacet
facet normal 0.6087614290087577 -0.7933533402912069 0.0
  outer loop
    vertex 124.35073095828953 681.8000191863736 1.5
    vertex 124.04007078650969 681.5616412524768 0.0
    vertex 124.35073095828953 681.8000191863736 0.0
  endloop
endfacet
facet normal 0.6087614290087577 -0.7933533402912069 0.0
  outer loop
    vertex 124.04007078650969 681.5616412524768 0.0
    vertex 124.35073095828953 681.8000191863736 1.5
    vertex 124.04007078650969 681.5616412524768 1.5
  endloop
endfacet
facet normal 0.7933533402912196 0.6087614290087409 0.0
  outer loop
    vertex 123.80169285261287 679.7509810806969 0.0
    vertex 124.04007078650969 679.4403209089171 1.5
    vertex 124.04007078650969 679.4403209089171 0.0
  endloop
endfacet
facet normal 0.7933533402912196 0.6087614290087409 0.0
  outer loop
    vertex 124.04007078650969 679.4403209089171 1.5
    vertex 123.80169285261287 679.7509810806969 0.0
    vertex 123.80169285261287 679.7509810806969 1.5
  endloop
endfacet
facet normal 0.9238795325112762 -0.3826834323651156 0.0
  outer loop
    vertex 123.80169285261287 681.2509810806969 0.0
    vertex 123.65184221885592 680.8892096483507 1.5
    vertex 123.65184221885592 680.8892096483507 0.0
  endloop
endfacet
facet normal 0.9238795325112762 -0.3826834323651156 0.0
  outer loop
    vertex 123.65184221885592 680.8892096483507 1.5
    vertex 123.80169285261287 681.2509810806969 0.0
    vertex 123.80169285261287 681.2509810806969 1.5
  endloop
endfacet
facet normal 0.9238795325112762 0.3826834323651156 0.0
  outer loop
    vertex 123.65184221885592 680.1127525130431 0.0
    vertex 123.80169285261287 679.7509810806969 1.5
    vertex 123.80169285261287 679.7509810806969 0.0
  endloop
endfacet
facet normal 0.9238795325112762 0.3826834323651156 0.0
  outer loop
    vertex 123.80169285261287 679.7509810806969 1.5
    vertex 123.65184221885592 680.1127525130431 0.0
    vertex 123.65184221885592 680.1127525130431 1.5
  endloop
endfacet
facet normal -0.7933533402912196 -0.6087614290087409 -0.0
  outer loop
    vertex 126.16139113006935 681.5616412524768 1.5
    vertex 126.39976906396616 681.2509810806969 0.0
    vertex 126.39976906396616 681.2509810806969 1.5
  endloop
endfacet
facet normal -0.7933533402912196 -0.6087614290087409 -0.0
  outer loop
    vertex 126.39976906396616 681.2509810806969 0.0
    vertex 126.16139113006935 681.5616412524768 1.5
    vertex 126.16139113006935 681.5616412524768 0.0
  endloop
endfacet
facet normal -0.6087614290087856 -0.7933533402911855 -0.0
  outer loop
    vertex 126.16139113006935 681.5616412524768 1.5
    vertex 125.85073095828953 681.8000191863736 0.0
    vertex 126.16139113006935 681.5616412524768 0.0
  endloop
endfacet
facet normal -0.6087614290087856 -0.7933533402911855 -0.0
  outer loop
    vertex 125.85073095828953 681.8000191863736 0.0
    vertex 126.16139113006935 681.5616412524768 1.5
    vertex 125.85073095828953 681.8000191863736 1.5
  endloop
endfacet
facet normal 0.38268343236506647 -0.9238795325112966 0.0
  outer loop
    vertex 124.71250239063573 681.9498698201305 1.5
    vertex 124.35073095828953 681.8000191863736 0.0
    vertex 124.71250239063573 681.9498698201305 0.0
  endloop
endfacet
facet normal 0.38268343236506647 -0.9238795325112966 0.0
  outer loop
    vertex 124.35073095828953 681.8000191863736 0.0
    vertex 124.71250239063573 681.9498698201305 1.5
    vertex 124.35073095828953 681.8000191863736 1.5
  endloop
endfacet
facet normal -0.13052619222010217 -0.9914448613738039 -0.0
  outer loop
    vertex 125.4889595259433 681.9498698201305 1.5
    vertex 125.10073095828952 682.000981080697 0.0
    vertex 125.4889595259433 681.9498698201305 0.0
  endloop
endfacet
facet normal -0.13052619222010217 -0.9914448613738039 -0.0
  outer loop
    vertex 125.10073095828952 682.000981080697 0.0
    vertex 125.4889595259433 681.9498698201305 1.5
    vertex 125.10073095828952 682.000981080697 1.5
  endloop
endfacet
facet normal -0.9914448613738123 0.13052619222003808 0.0
  outer loop
    vertex 126.60073095828952 680.5009810806969 1.5
    vertex 126.54961969772312 680.1127525130431 0.0
    vertex 126.54961969772312 680.1127525130431 1.5
  endloop
endfacet
facet normal -0.9914448613738123 0.13052619222003808 0.0
  outer loop
    vertex 126.54961969772312 680.1127525130431 0.0
    vertex 126.60073095828952 680.5009810806969 1.5
    vertex 126.60073095828952 680.5009810806969 0.0
  endloop
endfacet
facet normal -0.9914448613738123 -0.13052619222003808 -0.0
  outer loop
    vertex 126.54961969772312 680.8892096483507 1.5
    vertex 126.60073095828952 680.5009810806969 0.0
    vertex 126.60073095828952 680.5009810806969 1.5
  endloop
endfacet
facet normal -0.9914448613738123 -0.13052619222003808 -0.0
  outer loop
    vertex 126.60073095828952 680.5009810806969 0.0
    vertex 126.54961969772312 680.8892096483507 1.5
    vertex 126.54961969772312 680.8892096483507 0.0
  endloop
endfacet
facet normal -0.9238795325112762 -0.3826834323651156 -0.0
  outer loop
    vertex 126.39976906396616 681.2509810806969 1.5
    vertex 126.54961969772312 680.8892096483507 0.0
    vertex 126.54961969772312 680.8892096483507 1.5
  endloop
endfacet
facet normal -0.9238795325112762 -0.3826834323651156 -0.0
  outer loop
    vertex 126.54961969772312 680.8892096483507 0.0
    vertex 126.39976906396616 681.2509810806969 1.5
    vertex 126.39976906396616 681.2509810806969 0.0
  endloop
endfacet
facet normal -0.3826834323650461 -0.9238795325113051 -0.0
  outer loop
    vertex 125.85073095828953 681.8000191863736 1.5
    vertex 125.4889595259433 681.9498698201305 0.0
    vertex 125.85073095828953 681.8000191863736 0.0
  endloop
endfacet
facet normal -0.3826834323650461 -0.9238795325113051 -0.0
  outer loop
    vertex 125.4889595259433 681.9498698201305 0.0
    vertex 125.85073095828953 681.8000191863736 1.5
    vertex 125.4889595259433 681.9498698201305 1.5
  endloop
endfacet
facet normal 0.6087614290087856 0.7933533402911855 0.0
  outer loop
    vertex 124.04007078650969 679.4403209089171 1.5
    vertex 124.3507309582895 679.2019429750202 0.0
    vertex 124.04007078650969 679.4403209089171 0.0
  endloop
endfacet
facet normal 0.6087614290087856 0.7933533402911855 0.0
  outer loop
    vertex 124.3507309582895 679.2019429750202 0.0
    vertex 124.04007078650969 679.4403209089171 1.5
    vertex 124.3507309582895 679.2019429750202 1.5
  endloop
endfacet
facet normal 0.13052619222010217 0.9914448613738039 0.0
  outer loop
    vertex 124.71250239063573 679.0520923412633 1.5
    vertex 125.10073095828952 679.0009810806969 0.0
    vertex 124.71250239063573 679.0520923412633 0.0
  endloop
endfacet
facet normal 0.13052619222010217 0.9914448613738039 0.0
  outer loop
    vertex 125.10073095828952 679.0009810806969 0.0
    vertex 124.71250239063573 679.0520923412633 1.5
    vertex 125.10073095828952 679.0009810806969 1.5
  endloop
endfacet
facet normal -0.13052619222010217 0.9914448613738039 0.0
  outer loop
    vertex 125.10073095828952 679.0009810806969 1.5
    vertex 125.4889595259433 679.0520923412633 0.0
    vertex 125.10073095828952 679.0009810806969 0.0
  endloop
endfacet
facet normal -0.13052619222010217 0.9914448613738039 0.0
  outer loop
    vertex 125.4889595259433 679.0520923412633 0.0
    vertex 125.10073095828952 679.0009810806969 1.5
    vertex 125.4889595259433 679.0520923412633 1.5
  endloop
endfacet
facet normal 0.3826834323650461 0.9238795325113051 0.0
  outer loop
    vertex 124.3507309582895 679.2019429750202 1.5
    vertex 124.71250239063573 679.0520923412633 0.0
    vertex 124.3507309582895 679.2019429750202 0.0
  endloop
endfacet
facet normal 0.3826834323650461 0.9238795325113051 0.0
  outer loop
    vertex 124.71250239063573 679.0520923412633 0.0
    vertex 124.3507309582895 679.2019429750202 1.5
    vertex 124.71250239063573 679.0520923412633 1.5
  endloop
endfacet
endsolid 12_4_grid
