solid 12_4_grid
facet normal -6.430058561081458e-18 -6.4300585610814086e-18 1.0
  outer loop
    vertex 183.29733150196887 825.973034466259 2.5000000000000897
    vertex 186.79733150196887 829.4730344662592 2.5000000000000897
    vertex 183.29733150196887 845.4730344662592 2.50000000000009
  endloop
endfacet
facet normal -6.430058561081458e-18 -6.4300585610814086e-18 1.0
  outer loop
    vertex 186.79733150196887 829.4730344662592 2.5000000000000897
    vertex 183.29733150196887 825.973034466259 2.5000000000000897
    vertex 202.79733150196884 825.973034466259 2.50000000000009
  endloop
endfacet
facet normal -6.430058561081458e-18 -6.4300585610814086e-18 1.0
  outer loop
    vertex 186.79733150196887 829.4730344662592 2.5000000000000897
    vertex 202.79733150196884 825.973034466259 2.50000000000009
    vertex 202.79733150196884 829.4730344662592 2.5000000000000897
  endloop
endfacet
facet normal -6.430058561081458e-18 -6.4300585610814086e-18 1.0
  outer loop
    vertex 186.79733150196887 845.4730344662592 2.5000000000000897
    vertex 183.29733150196887 845.4730344662592 2.50000000000009
    vertex 186.79733150196887 829.4730344662592 2.5000000000000897
  endloop
endfacet
facet normal -0.0 1.0 -0.0
  outer loop
    vertex 186.79733150196887 829.4730344662592 2.5000000000000897
    vertex 202.79733150196884 829.4730344662592 1.5000000000000904
    vertex 186.79733150196887 829.4730344662592 1.5000000000000904
  endloop
endfacet
facet normal -0.0 1.0 -0.0
  outer loop
    vertex 202.79733150196884 829.4730344662592 1.5000000000000904
    vertex 186.79733150196887 829.4730344662592 2.5000000000000897
    vertex 202.79733150196884 829.4730344662592 2.5000000000000897
  endloop
endfacet
facet normal 1.0 -0.0 -0.0
  outer loop
    vertex 186.79733150196887 845.4730344662592 1.5000000000000904
    vertex 186.79733150196887 829.4730344662592 2.5000000000000897
    vertex 186.79733150196887 829.4730344662592 1.5000000000000904
  endloop
endfacet
facet normal 1.0 -0.0 -0.0
  outer loop
    vertex 186.79733150196887 829.4730344662592 2.5000000000000897
    vertex 186.79733150196887 845.4730344662592 1.5000000000000904
    vertex 186.79733150196887 845.4730344662592 2.5000000000000897
  endloop
endfacet
facet normal -0.0 -0.0 1.0
  outer loop
    vertex 205.29733150196884 847.9730344662593 1.5000000000000904
    vertex 206.29733150196884 848.9730344662593 1.5000000000000904
    vertex 205.29733150196884 863.9730344662593 1.5000000000000904
  endloop
endfacet
facet normal -0.0 -0.0 1.0
  outer loop
    vertex 206.29733150196884 848.9730344662593 1.5000000000000904
    vertex 205.29733150196884 847.9730344662593 1.5000000000000904
    vertex 221.29733150196887 847.9730344662593 1.5000000000000904
  endloop
endfacet
facet normal -0.0 -0.0 1.0
  outer loop
    vertex 206.29733150196884 848.9730344662593 1.5000000000000904
    vertex 221.29733150196887 847.9730344662593 1.5000000000000904
    vertex 220.29733150196887 848.9730344662593 1.5000000000000904
  endloop
endfacet
facet normal -0.0 -0.0 1.0
  outer loop
    vertex 220.29733150196887 848.9730344662593 1.5000000000000904
    vertex 221.29733150196887 847.9730344662593 1.5000000000000904
    vertex 220.29733150196887 862.9730344662593 1.5000000000000904
  endloop
endfacet
facet normal -0.0 -0.0 1.0
  outer loop
    vertex 220.29733150196887 862.9730344662593 1.5000000000000904
    vertex 221.29733150196887 847.9730344662593 1.5000000000000904
    vertex 220.29733150196887 863.9730344662593 1.5000000000000904
  endloop
endfacet
facet normal -0.0 -0.0 1.0
  outer loop
    vertex 220.29733150196887 863.9730344662593 1.5000000000000904
    vertex 221.29733150196887 847.9730344662593 1.5000000000000904
    vertex 221.29733150196887 863.9730344662593 1.5000000000000904
  endloop
endfacet
facet normal -0.0 -0.0 1.0
  outer loop
    vertex 221.29733150196887 863.9730344662593 1.5000000000000904
    vertex 221.29733150196887 847.9730344662593 1.5000000000000904
    vertex 221.29733150196887 862.9730344662593 1.5000000000000904
  endloop
endfacet
facet normal -0.0 -0.0 1.0
  outer loop
    vertex 205.29733150196884 863.9730344662593 1.5000000000000904
    vertex 206.29733150196884 862.9730344662593 1.5000000000000904
    vertex 220.29733150196887 863.9730344662593 1.5000000000000904
  endloop
endfacet
facet normal -0.0 -0.0 1.0
  outer loop
    vertex 206.29733150196884 862.9730344662593 1.5000000000000904
    vertex 205.29733150196884 863.9730344662593 1.5000000000000904
    vertex 206.29733150196884 848.9730344662593 1.5000000000000904
  endloop
endfacet
facet normal -0.0 -0.0 1.0
  outer loop
    vertex 220.29733150196887 863.9730344662593 1.5000000000000904
    vertex 206.29733150196884 862.9730344662593 1.5000000000000904
    vertex 220.29733150196887 862.9730344662593 1.5000000000000904
  endloop
endfacet
facet normal -0.0 -0.0 1.0
  outer loop
    vertex 186.79733150196887 847.9730344662593 1.5000000000000904
    vertex 187.79733150196887 848.9730344662593 1.5000000000000904
    vertex 186.79733150196887 863.9730344662593 1.5000000000000904
  endloop
endfacet
facet normal -0.0 -0.0 1.0
  outer loop
    vertex 187.79733150196887 848.9730344662593 1.5000000000000904
    vertex 186.79733150196887 847.9730344662593 1.5000000000000904
    vertex 202.79733150196884 847.9730344662593 1.5000000000000904
  endloop
endfacet
facet normal -0.0 -0.0 1.0
  outer loop
    vertex 187.79733150196887 848.9730344662593 1.5000000000000904
    vertex 202.79733150196884 847.9730344662593 1.5000000000000904
    vertex 201.79733150196887 848.9730344662593 1.5000000000000904
  endloop
endfacet
facet normal -0.0 -0.0 1.0
  outer loop
    vertex 201.79733150196887 848.9730344662593 1.5000000000000904
    vertex 202.79733150196884 847.9730344662593 1.5000000000000904
    vertex 201.79733150196887 862.9730344662593 1.5000000000000904
  endloop
endfacet
facet normal -0.0 -0.0 1.0
  outer loop
    vertex 186.79733150196887 863.9730344662593 1.5000000000000904
    vertex 187.79733150196887 862.9730344662593 1.5000000000000904
    vertex 202.79733150196884 863.9730344662593 1.5000000000000904
  endloop
endfacet
facet normal -0.0 -0.0 1.0
  outer loop
    vertex 187.79733150196887 862.9730344662593 1.5000000000000904
    vertex 186.79733150196887 863.9730344662593 1.5000000000000904
    vertex 187.79733150196887 848.9730344662593 1.5000000000000904
  endloop
endfacet
facet normal -0.0 -0.0 1.0
  outer loop
    vertex 202.79733150196884 863.9730344662593 1.5000000000000904
    vertex 187.79733150196887 862.9730344662593 1.5000000000000904
    vertex 201.79733150196887 862.9730344662593 1.5000000000000904
  endloop
endfacet
facet normal -0.0 -0.0 1.0
  outer loop
    vertex 202.79733150196884 863.9730344662593 1.5000000000000904
    vertex 201.79733150196887 862.9730344662593 1.5000000000000904
    vertex 202.79733150196884 847.9730344662593 1.5000000000000904
  endloop
endfacet
facet normal 0.0 -1.0 0.0
  outer loop
    vertex 220.29733150196887 863.9730344662593 2.50000000000009
    vertex 205.29733150196884 863.9730344662593 1.5000000000000904
    vertex 220.29733150196887 863.9730344662593 1.5000000000000904
  endloop
endfacet
facet normal 0.0 -1.0 0.0
  outer loop
    vertex 205.29733150196884 863.9730344662593 1.5000000000000904
    vertex 220.29733150196887 863.9730344662593 2.50000000000009
    vertex 205.29733150196884 863.9730344662593 2.50000000000009
  endloop
endfacet
facet normal -1.0 -0.0 -0.0
  outer loop
    vertex 221.29733150196887 863.9730344662593 2.50000000000009
    vertex 221.29733150196887 862.9730344662593 1.5000000000000904
    vertex 221.29733150196887 862.9730344662593 2.50000000000009
  endloop
endfacet
facet normal -1.0 -0.0 -0.0
  outer loop
    vertex 221.29733150196887 862.9730344662593 1.5000000000000904
    vertex 221.29733150196887 863.9730344662593 2.50000000000009
    vertex 221.29733150196887 863.9730344662593 1.5000000000000904
  endloop
endfacet
facet normal 0.0 -1.0 0.0
  outer loop
    vertex 221.29733150196887 863.9730344662593 2.50000000000009
    vertex 220.29733150196887 863.9730344662593 1.5000000000000904
    vertex 221.29733150196887 863.9730344662593 1.5000000000000904
  endloop
endfacet
facet normal 0.0 -1.0 0.0
  outer loop
    vertex 220.29733150196887 863.9730344662593 1.5000000000000904
    vertex 221.29733150196887 863.9730344662593 2.50000000000009
    vertex 220.29733150196887 863.9730344662593 2.50000000000009
  endloop
endfacet
facet normal -1.0 0.0 0.0
  outer loop
    vertex 221.29733150196887 862.9730344662593 2.50000000000009
    vertex 221.29733150196887 847.9730344662593 1.5000000000000904
    vertex 221.29733150196887 847.9730344662593 2.50000000000009
  endloop
endfacet
facet normal -1.0 0.0 0.0
  outer loop
    vertex 221.29733150196887 847.9730344662593 1.5000000000000904
    vertex 221.29733150196887 862.9730344662593 2.50000000000009
    vertex 221.29733150196887 862.9730344662593 1.5000000000000904
  endloop
endfacet
facet normal -0.0 -0.0 1.0
  outer loop
    vertex 224.79733150196884 847.9730344662593 2.50000000000009
    vertex 221.29733150196887 862.9730344662593 2.50000000000009
    vertex 221.29733150196887 847.9730344662593 2.50000000000009
  endloop
endfacet
facet normal -0.0 -0.0 1.0
  outer loop
    vertex 221.29733150196887 862.9730344662593 2.50000000000009
    vertex 224.79733150196884 847.9730344662593 2.50000000000009
    vertex 221.29733150196887 863.9730344662593 2.50000000000009
  endloop
endfacet
facet normal -0.0 -0.0 1.0
  outer loop
    vertex 220.29733150196887 863.9730344662593 2.50000000000009
    vertex 205.29733150196884 867.4730344662594 2.50000000000009
    vertex 205.29733150196884 863.9730344662593 2.50000000000009
  endloop
endfacet
facet normal -0.0 -0.0 1.0
  outer loop
    vertex 205.29733150196884 867.4730344662594 2.50000000000009
    vertex 220.29733150196887 863.9730344662593 2.50000000000009
    vertex 224.79733150196884 867.4730344662594 2.50000000000009
  endloop
endfacet
facet normal -0.0 -0.0 1.0
  outer loop
    vertex 224.79733150196884 867.4730344662594 2.50000000000009
    vertex 220.29733150196887 863.9730344662593 2.50000000000009
    vertex 221.29733150196887 863.9730344662593 2.50000000000009
  endloop
endfacet
facet normal -0.0 -0.0 1.0
  outer loop
    vertex 224.79733150196884 867.4730344662594 2.50000000000009
    vertex 221.29733150196887 863.9730344662593 2.50000000000009
    vertex 224.79733150196884 847.9730344662593 2.50000000000009
  endloop
endfacet
facet normal -0.0 -0.0 1.0
  outer loop
    vertex 186.79733150196887 829.4730344662592 1.5000000000000904
    vertex 187.79733150196887 830.4730344662592 1.5000000000000904
    vertex 186.79733150196887 845.4730344662592 1.5000000000000904
  endloop
endfacet
facet normal -0.0 -0.0 1.0
  outer loop
    vertex 187.79733150196887 830.4730344662592 1.5000000000000904
    vertex 186.79733150196887 829.4730344662592 1.5000000000000904
    vertex 202.79733150196884 829.4730344662592 1.5000000000000904
  endloop
endfacet
facet normal -0.0 -0.0 1.0
  outer loop
    vertex 187.79733150196887 830.4730344662592 1.5000000000000904
    vertex 202.79733150196884 829.4730344662592 1.5000000000000904
    vertex 201.79733150196887 830.4730344662592 1.5000000000000904
  endloop
endfacet
facet normal -0.0 -0.0 1.0
  outer loop
    vertex 201.79733150196887 830.4730344662592 1.5000000000000904
    vertex 202.79733150196884 829.4730344662592 1.5000000000000904
    vertex 201.79733150196887 844.4730344662592 1.5000000000000904
  endloop
endfacet
facet normal -0.0 -0.0 1.0
  outer loop
    vertex 186.79733150196887 845.4730344662592 1.5000000000000904
    vertex 187.79733150196887 844.4730344662592 1.5000000000000904
    vertex 202.79733150196884 845.4730344662592 1.5000000000000904
  endloop
endfacet
facet normal -0.0 -0.0 1.0
  outer loop
    vertex 187.79733150196887 844.4730344662592 1.5000000000000904
    vertex 186.79733150196887 845.4730344662592 1.5000000000000904
    vertex 187.79733150196887 830.4730344662592 1.5000000000000904
  endloop
endfacet
facet normal -0.0 -0.0 1.0
  outer loop
    vertex 202.79733150196884 845.4730344662592 1.5000000000000904
    vertex 187.79733150196887 844.4730344662592 1.5000000000000904
    vertex 201.79733150196887 844.4730344662592 1.5000000000000904
  endloop
endfacet
facet normal -0.0 -0.0 1.0
  outer loop
    vertex 202.79733150196884 845.4730344662592 1.5000000000000904
    vertex 201.79733150196887 844.4730344662592 1.5000000000000904
    vertex 202.79733150196884 829.4730344662592 1.5000000000000904
  endloop
endfacet
facet normal -1.0 0.0 0.0
  outer loop
    vertex 183.29733150196887 867.4730344662594 2.5000000000000897
    vertex 183.29733150196887 847.9730344662593 1.5000000000000904
    vertex 183.29733150196887 847.9730344662593 2.50000000000009
  endloop
endfacet
facet normal -1.0 0.0 0.0
  outer loop
    vertex 183.29733150196887 845.4730344662592 2.50000000000009
    vertex 183.29733150196887 825.973034466259 9.023892744153272e-14
    vertex 183.29733150196887 825.973034466259 2.5000000000000897
  endloop
endfacet
facet normal -1.0 0.0 0.0
  outer loop
    vertex 183.29733150196887 825.973034466259 9.023892744153272e-14
    vertex 183.29733150196887 845.4730344662592 2.50000000000009
    vertex 183.29733150196887 845.4730344662592 1.5000000000000904
  endloop
endfacet
facet normal -1.0 0.0 0.0
  outer loop
    vertex 183.29733150196887 825.973034466259 9.023892744153272e-14
    vertex 183.29733150196887 845.4730344662592 1.5000000000000904
    vertex 183.29733150196887 867.4730344662594 9.023892744153272e-14
  endloop
endfacet
facet normal -1.0 0.0 0.0
  outer loop
    vertex 183.29733150196887 867.4730344662594 9.023892744153272e-14
    vertex 183.29733150196887 845.4730344662592 1.5000000000000904
    vertex 183.29733150196887 847.9730344662593 1.5000000000000904
  endloop
endfacet
facet normal -1.0 0.0 0.0
  outer loop
    vertex 183.29733150196887 867.4730344662594 9.023892744153272e-14
    vertex 183.29733150196887 847.9730344662593 1.5000000000000904
    vertex 183.29733150196887 867.4730344662594 2.5000000000000897
  endloop
endfacet
facet normal -0.0 1.0 -0.0
  outer loop
    vertex 183.29733150196887 867.4730344662594 2.5000000000000897
    vertex 224.79733150196884 867.4730344662594 9.023892744153272e-14
    vertex 183.29733150196887 867.4730344662594 9.023892744153272e-14
  endloop
endfacet
facet normal -0.0 1.0 -0.0
  outer loop
    vertex 224.79733150196884 867.4730344662594 9.023892744153272e-14
    vertex 183.29733150196887 867.4730344662594 2.5000000000000897
    vertex 202.79733150196884 867.4730344662594 1.5000000000000904
  endloop
endfacet
facet normal -0.0 1.0 -0.0
  outer loop
    vertex 202.79733150196884 867.4730344662594 1.5000000000000904
    vertex 183.29733150196887 867.4730344662594 2.5000000000000897
    vertex 202.79733150196884 867.4730344662594 2.50000000000009
  endloop
endfacet
facet normal -0.0 1.0 -0.0
  outer loop
    vertex 224.79733150196884 867.4730344662594 9.023892744153272e-14
    vertex 205.29733150196884 867.4730344662594 1.5000000000000904
    vertex 224.79733150196884 867.4730344662594 2.50000000000009
  endloop
endfacet
facet normal -0.0 1.0 -0.0
  outer loop
    vertex 205.29733150196884 867.4730344662594 1.5000000000000904
    vertex 224.79733150196884 867.4730344662594 9.023892744153272e-14
    vertex 202.79733150196884 867.4730344662594 1.5000000000000904
  endloop
endfacet
facet normal -0.0 1.0 -0.0
  outer loop
    vertex 224.79733150196884 867.4730344662594 2.50000000000009
    vertex 205.29733150196884 867.4730344662594 1.5000000000000904
    vertex 205.29733150196884 867.4730344662594 2.50000000000009
  endloop
endfacet
facet normal 1.0 -0.0 -0.0
  outer loop
    vertex 224.79733150196884 867.4730344662594 9.023892744153272e-14
    vertex 224.79733150196884 825.973034466259 2.50000000000009
    vertex 224.79733150196884 825.973034466259 9.023892744153272e-14
  endloop
endfacet
facet normal 1.0 -0.0 -0.0
  outer loop
    vertex 224.79733150196884 825.973034466259 2.50000000000009
    vertex 224.79733150196884 867.4730344662594 9.023892744153272e-14
    vertex 224.79733150196884 845.4730344662592 1.5000000000000904
  endloop
endfacet
facet normal 1.0 -0.0 -0.0
  outer loop
    vertex 224.79733150196884 845.4730344662592 1.5000000000000904
    vertex 224.79733150196884 867.4730344662594 9.023892744153272e-14
    vertex 224.79733150196884 847.9730344662593 1.5000000000000904
  endloop
endfacet
facet normal 1.0 -0.0 -0.0
  outer loop
    vertex 224.79733150196884 847.9730344662593 1.5000000000000904
    vertex 224.79733150196884 867.4730344662594 9.023892744153272e-14
    vertex 224.79733150196884 847.9730344662593 2.50000000000009
  endloop
endfacet
facet normal 1.0 -0.0 -0.0
  outer loop
    vertex 224.79733150196884 847.9730344662593 2.50000000000009
    vertex 224.79733150196884 867.4730344662594 9.023892744153272e-14
    vertex 224.79733150196884 867.4730344662594 2.50000000000009
  endloop
endfacet
facet normal 1.0 -0.0 -0.0
  outer loop
    vertex 224.79733150196884 845.4730344662592 2.50000000000009
    vertex 224.79733150196884 825.973034466259 2.50000000000009
    vertex 224.79733150196884 845.4730344662592 1.5000000000000904
  endloop
endfacet
facet normal 0.0 -1.0 0.0
  outer loop
    vertex 224.79733150196884 825.973034466259 2.50000000000009
    vertex 183.29733150196887 825.973034466259 9.023892744153272e-14
    vertex 224.79733150196884 825.973034466259 9.023892744153272e-14
  endloop
endfacet
facet normal 0.0 -1.0 0.0
  outer loop
    vertex 183.29733150196887 825.973034466259 9.023892744153272e-14
    vertex 224.79733150196884 825.973034466259 2.50000000000009
    vertex 205.29733150196884 825.973034466259 1.5000000000000904
  endloop
endfacet
facet normal 0.0 -1.0 0.0
  outer loop
    vertex 205.29733150196884 825.973034466259 1.5000000000000904
    vertex 224.79733150196884 825.973034466259 2.50000000000009
    vertex 205.29733150196884 825.973034466259 2.50000000000009
  endloop
endfacet
facet normal 0.0 -1.0 0.0
  outer loop
    vertex 183.29733150196887 825.973034466259 9.023892744153272e-14
    vertex 202.79733150196884 825.973034466259 1.5000000000000904
    vertex 183.29733150196887 825.973034466259 2.5000000000000897
  endloop
endfacet
facet normal 0.0 -1.0 0.0
  outer loop
    vertex 202.79733150196884 825.973034466259 1.5000000000000904
    vertex 183.29733150196887 825.973034466259 9.023892744153272e-14
    vertex 205.29733150196884 825.973034466259 1.5000000000000904
  endloop
endfacet
facet normal 0.0 -1.0 0.0
  outer loop
    vertex 183.29733150196887 825.973034466259 2.5000000000000897
    vertex 202.79733150196884 825.973034466259 1.5000000000000904
    vertex 202.79733150196884 825.973034466259 2.50000000000009
  endloop
endfacet
facet normal 1.0 0.0 0.0
  outer loop
    vertex 206.29733150196884 862.9730344662593 9.023892744153272e-14
    vertex 206.29733150196884 848.9730344662593 1.5000000000000904
    vertex 206.29733150196884 848.9730344662593 9.023892744153272e-14
  endloop
endfacet
facet normal 1.0 0.0 0.0
  outer loop
    vertex 206.29733150196884 848.9730344662593 1.5000000000000904
    vertex 206.29733150196884 862.9730344662593 9.023892744153272e-14
    vertex 206.29733150196884 862.9730344662593 1.5000000000000904
  endloop
endfacet
facet normal -0.0 1.0 0.0
  outer loop
    vertex 206.29733150196884 848.9730344662593 1.5000000000000904
    vertex 220.29733150196887 848.9730344662593 9.023892744153272e-14
    vertex 206.29733150196884 848.9730344662593 9.023892744153272e-14
  endloop
endfacet
facet normal -0.0 1.0 0.0
  outer loop
    vertex 220.29733150196887 848.9730344662593 9.023892744153272e-14
    vertex 206.29733150196884 848.9730344662593 1.5000000000000904
    vertex 220.29733150196887 848.9730344662593 1.5000000000000904
  endloop
endfacet
facet normal 1.0 0.0 0.0
  outer loop
    vertex 187.79733150196887 862.9730344662593 9.023892744153272e-14
    vertex 187.79733150196887 848.9730344662593 1.5000000000000904
    vertex 187.79733150196887 848.9730344662593 9.023892744153272e-14
  endloop
endfacet
facet normal 1.0 0.0 0.0
  outer loop
    vertex 187.79733150196887 848.9730344662593 1.5000000000000904
    vertex 187.79733150196887 862.9730344662593 9.023892744153272e-14
    vertex 187.79733150196887 862.9730344662593 1.5000000000000904
  endloop
endfacet
facet normal -0.0 1.0 0.0
  outer loop
    vertex 187.79733150196887 830.4730344662592 1.5000000000000904
    vertex 201.79733150196887 830.4730344662592 9.023892744153272e-14
    vertex 187.79733150196887 830.4730344662592 9.023892744153272e-14
  endloop
endfacet
facet normal -0.0 1.0 0.0
  outer loop
    vertex 201.79733150196887 830.4730344662592 9.023892744153272e-14
    vertex 187.79733150196887 830.4730344662592 1.5000000000000904
    vertex 201.79733150196887 830.4730344662592 1.5000000000000904
  endloop
endfacet
facet normal -0.0 -1.0 -0.0
  outer loop
    vertex 201.79733150196887 844.4730344662592 1.5000000000000904
    vertex 187.79733150196887 844.4730344662592 9.023892744153272e-14
    vertex 201.79733150196887 844.4730344662592 9.023892744153272e-14
  endloop
endfacet
facet normal -0.0 -1.0 -0.0
  outer loop
    vertex 187.79733150196887 844.4730344662592 9.023892744153272e-14
    vertex 201.79733150196887 844.4730344662592 1.5000000000000904
    vertex 187.79733150196887 844.4730344662592 1.5000000000000904
  endloop
endfacet
facet normal -0.0 -1.0 -0.0
  outer loop
    vertex 201.79733150196887 862.9730344662593 1.5000000000000904
    vertex 187.79733150196887 862.9730344662593 9.023892744153272e-14
    vertex 201.79733150196887 862.9730344662593 9.023892744153272e-14
  endloop
endfacet
facet normal -0.0 -1.0 -0.0
  outer loop
    vertex 187.79733150196887 862.9730344662593 9.023892744153272e-14
    vertex 201.79733150196887 862.9730344662593 1.5000000000000904
    vertex 187.79733150196887 862.9730344662593 1.5000000000000904
  endloop
endfacet
facet normal 1.0 0.0 0.0
  outer loop
    vertex 206.29733150196884 844.4730344662592 9.023892744153272e-14
    vertex 206.29733150196884 830.4730344662592 1.5000000000000904
    vertex 206.29733150196884 830.4730344662592 9.023892744153272e-14
  endloop
endfacet
facet normal 1.0 0.0 0.0
  outer loop
    vertex 206.29733150196884 830.4730344662592 1.5000000000000904
    vertex 206.29733150196884 844.4730344662592 9.023892744153272e-14
    vertex 206.29733150196884 844.4730344662592 1.5000000000000904
  endloop
endfacet
facet normal -1.0 0.0 0.0
  outer loop
    vertex 220.29733150196887 862.9730344662593 1.5000000000000904
    vertex 220.29733150196887 848.9730344662593 9.023892744153272e-14
    vertex 220.29733150196887 848.9730344662593 1.5000000000000904
  endloop
endfacet
facet normal -1.0 0.0 0.0
  outer loop
    vertex 220.29733150196887 848.9730344662593 9.023892744153272e-14
    vertex 220.29733150196887 862.9730344662593 1.5000000000000904
    vertex 220.29733150196887 862.9730344662593 9.023892744153272e-14
  endloop
endfacet
facet normal -1.0 0.0 0.0
  outer loop
    vertex 201.79733150196887 844.4730344662592 1.5000000000000904
    vertex 201.79733150196887 830.4730344662592 9.023892744153272e-14
    vertex 201.79733150196887 830.4730344662592 1.5000000000000904
  endloop
endfacet
facet normal -1.0 0.0 0.0
  outer loop
    vertex 201.79733150196887 830.4730344662592 9.023892744153272e-14
    vertex 201.79733150196887 844.4730344662592 1.5000000000000904
    vertex 201.79733150196887 844.4730344662592 9.023892744153272e-14
  endloop
endfacet
facet normal 1.0 0.0 0.0
  outer loop
    vertex 187.79733150196887 844.4730344662592 9.023892744153272e-14
    vertex 187.79733150196887 830.4730344662592 1.5000000000000904
    vertex 187.79733150196887 830.4730344662592 9.023892744153272e-14
  endloop
endfacet
facet normal 1.0 0.0 0.0
  outer loop
    vertex 187.79733150196887 830.4730344662592 1.5000000000000904
    vertex 187.79733150196887 844.4730344662592 9.023892744153272e-14
    vertex 187.79733150196887 844.4730344662592 1.5000000000000904
  endloop
endfacet
facet normal -0.0 1.0 0.0
  outer loop
    vertex 206.29733150196884 830.4730344662592 1.5000000000000904
    vertex 220.29733150196887 830.4730344662592 9.023892744153272e-14
    vertex 206.29733150196884 830.4730344662592 9.023892744153272e-14
  endloop
endfacet
facet normal -0.0 1.0 0.0
  outer loop
    vertex 220.29733150196887 830.4730344662592 9.023892744153272e-14
    vertex 206.29733150196884 830.4730344662592 1.5000000000000904
    vertex 220.29733150196887 830.4730344662592 1.5000000000000904
  endloop
endfacet
facet normal -0.0 -1.0 -0.0
  outer loop
    vertex 220.29733150196887 862.9730344662593 1.5000000000000904
    vertex 206.29733150196884 862.9730344662593 9.023892744153272e-14
    vertex 220.29733150196887 862.9730344662593 9.023892744153272e-14
  endloop
endfacet
facet normal -0.0 -1.0 -0.0
  outer loop
    vertex 206.29733150196884 862.9730344662593 9.023892744153272e-14
    vertex 220.29733150196887 862.9730344662593 1.5000000000000904
    vertex 206.29733150196884 862.9730344662593 1.5000000000000904
  endloop
endfacet
facet normal -1.0 0.0 0.0
  outer loop
    vertex 201.79733150196887 862.9730344662593 1.5000000000000904
    vertex 201.79733150196887 848.9730344662593 9.023892744153272e-14
    vertex 201.79733150196887 848.9730344662593 1.5000000000000904
  endloop
endfacet
facet normal -1.0 0.0 0.0
  outer loop
    vertex 201.79733150196887 848.9730344662593 9.023892744153272e-14
    vertex 201.79733150196887 862.9730344662593 1.5000000000000904
    vertex 201.79733150196887 862.9730344662593 9.023892744153272e-14
  endloop
endfacet
facet normal -1.0 0.0 0.0
  outer loop
    vertex 220.29733150196887 844.4730344662592 1.5000000000000904
    vertex 220.29733150196887 830.4730344662592 9.023892744153272e-14
    vertex 220.29733150196887 830.4730344662592 1.5000000000000904
  endloop
endfacet
facet normal -1.0 0.0 0.0
  outer loop
    vertex 220.29733150196887 830.4730344662592 9.023892744153272e-14
    vertex 220.29733150196887 844.4730344662592 1.5000000000000904
    vertex 220.29733150196887 844.4730344662592 9.023892744153272e-14
  endloop
endfacet
facet normal -0.0 -1.0 -0.0
  outer loop
    vertex 220.29733150196887 844.4730344662592 1.5000000000000904
    vertex 206.29733150196884 844.4730344662592 9.023892744153272e-14
    vertex 220.29733150196887 844.4730344662592 9.023892744153272e-14
  endloop
endfacet
facet normal -0.0 -1.0 -0.0
  outer loop
    vertex 206.29733150196884 844.4730344662592 9.023892744153272e-14
    vertex 220.29733150196887 844.4730344662592 1.5000000000000904
    vertex 206.29733150196884 844.4730344662592 1.5000000000000904
  endloop
endfacet
facet normal -0.0 1.0 0.0
  outer loop
    vertex 187.79733150196887 848.9730344662593 1.5000000000000904
    vertex 201.79733150196887 848.9730344662593 9.023892744153272e-14
    vertex 187.79733150196887 848.9730344662593 9.023892744153272e-14
  endloop
endfacet
facet normal -0.0 1.0 0.0
  outer loop
    vertex 201.79733150196887 848.9730344662593 9.023892744153272e-14
    vertex 187.79733150196887 848.9730344662593 1.5000000000000904
    vertex 201.79733150196887 848.9730344662593 1.5000000000000904
  endloop
endfacet
facet normal -0.0 1.0 -0.0
  outer loop
    vertex 202.79733150196884 867.4730344662594 2.50000000000009
    vertex 205.29733150196884 867.4730344662594 1.5000000000000904
    vertex 202.79733150196884 867.4730344662594 1.5000000000000904
  endloop
endfacet
facet normal -0.0 1.0 -0.0
  outer loop
    vertex 205.29733150196884 867.4730344662594 1.5000000000000904
    vertex 202.79733150196884 867.4730344662594 2.50000000000009
    vertex 205.29733150196884 867.4730344662594 2.50000000000009
  endloop
endfacet
facet normal -0.0 1.0 -0.0
  outer loop
    vertex 205.29733150196884 847.9730344662593 2.50000000000009
    vertex 221.29733150196887 847.9730344662593 1.5000000000000904
    vertex 205.29733150196884 847.9730344662593 1.5000000000000904
  endloop
endfacet
facet normal -0.0 1.0 -0.0
  outer loop
    vertex 221.29733150196887 847.9730344662593 1.5000000000000904
    vertex 205.29733150196884 847.9730344662593 2.50000000000009
    vertex 221.29733150196887 847.9730344662593 2.50000000000009
  endloop
endfacet
facet normal -1.0 0.0 0.0
  outer loop
    vertex 202.79733150196884 863.9730344662593 2.5000000000000897
    vertex 202.79733150196884 847.9730344662593 1.5000000000000904
    vertex 202.79733150196884 847.9730344662593 2.50000000000009
  endloop
endfacet
facet normal -1.0 0.0 0.0
  outer loop
    vertex 202.79733150196884 847.9730344662593 1.5000000000000904
    vertex 202.79733150196884 863.9730344662593 2.5000000000000897
    vertex 202.79733150196884 863.9730344662593 1.5000000000000904
  endloop
endfacet
facet normal 0.0 -1.0 0.0
  outer loop
    vertex 221.29733150196887 845.4730344662592 2.50000000000009
    vertex 205.29733150196884 845.4730344662592 1.5000000000000904
    vertex 221.29733150196887 845.4730344662592 1.5000000000000904
  endloop
endfacet
facet normal 0.0 -1.0 0.0
  outer loop
    vertex 205.29733150196884 845.4730344662592 1.5000000000000904
    vertex 221.29733150196887 845.4730344662592 2.50000000000009
    vertex 205.29733150196884 845.4730344662592 2.50000000000009
  endloop
endfacet
facet normal 1.0 -0.0 -0.0
  outer loop
    vertex 224.79733150196884 847.9730344662593 1.5000000000000904
    vertex 224.79733150196884 845.4730344662592 2.50000000000009
    vertex 224.79733150196884 845.4730344662592 1.5000000000000904
  endloop
endfacet
facet normal 1.0 -0.0 -0.0
  outer loop
    vertex 224.79733150196884 845.4730344662592 2.50000000000009
    vertex 224.79733150196884 847.9730344662593 1.5000000000000904
    vertex 224.79733150196884 847.9730344662593 2.50000000000009
  endloop
endfacet
facet normal 1.0 -0.0 -0.0
  outer loop
    vertex 205.29733150196884 863.9730344662593 1.5000000000000904
    vertex 205.29733150196884 847.9730344662593 2.50000000000009
    vertex 205.29733150196884 847.9730344662593 1.5000000000000904
  endloop
endfacet
facet normal 1.0 -0.0 -0.0
  outer loop
    vertex 205.29733150196884 847.9730344662593 2.50000000000009
    vertex 205.29733150196884 863.9730344662593 1.5000000000000904
    vertex 205.29733150196884 863.9730344662593 2.50000000000009
  endloop
endfacet
facet normal -0.0 -0.0 1.0
  outer loop
    vertex 221.29733150196887 845.4730344662592 2.50000000000009
    vertex 205.29733150196884 847.9730344662593 2.50000000000009
    vertex 205.29733150196884 845.4730344662592 2.50000000000009
  endloop
endfacet
facet normal -0.0 -0.0 1.0
  outer loop
    vertex 205.29733150196884 847.9730344662593 2.50000000000009
    vertex 221.29733150196887 845.4730344662592 2.50000000000009
    vertex 221.29733150196887 847.9730344662593 2.50000000000009
  endloop
endfacet
facet normal -0.0 -0.0 1.0
  outer loop
    vertex 221.29733150196887 847.9730344662593 2.50000000000009
    vertex 221.29733150196887 845.4730344662592 2.50000000000009
    vertex 224.79733150196884 845.4730344662592 2.50000000000009
  endloop
endfacet
facet normal -0.0 -0.0 1.0
  outer loop
    vertex 221.29733150196887 847.9730344662593 2.50000000000009
    vertex 224.79733150196884 845.4730344662592 2.50000000000009
    vertex 224.79733150196884 847.9730344662593 2.50000000000009
  endloop
endfacet
facet normal -4.699944137579838e-17 3.3972225358373347e-18 1.0
  outer loop
    vertex 205.29733150196884 847.9730344662593 2.50000000000009
    vertex 202.79733150196884 863.9730344662593 2.5000000000000897
    vertex 202.79733150196884 847.9730344662593 2.50000000000009
  endloop
endfacet
facet normal -4.699944137579838e-17 3.3972225358373347e-18 1.0
  outer loop
    vertex 202.79733150196884 863.9730344662593 2.5000000000000897
    vertex 205.29733150196884 847.9730344662593 2.50000000000009
    vertex 202.79733150196884 867.4730344662594 2.50000000000009
  endloop
endfacet
facet normal -4.699944137579838e-17 3.3972225358373347e-18 1.0
  outer loop
    vertex 202.79733150196884 867.4730344662594 2.50000000000009
    vertex 205.29733150196884 847.9730344662593 2.50000000000009
    vertex 205.29733150196884 867.4730344662594 2.50000000000009
  endloop
endfacet
facet normal -4.699944137579838e-17 3.3972225358373347e-18 1.0
  outer loop
    vertex 205.29733150196884 867.4730344662594 2.50000000000009
    vertex 205.29733150196884 847.9730344662593 2.50000000000009
    vertex 205.29733150196884 863.9730344662593 2.50000000000009
  endloop
endfacet
facet normal -4.699944137579838e-17 -3.3972225358373355e-18 1.0
  outer loop
    vertex 205.29733150196884 825.973034466259 2.50000000000009
    vertex 202.79733150196884 829.4730344662592 2.5000000000000897
    vertex 202.79733150196884 825.973034466259 2.50000000000009
  endloop
endfacet
facet normal -4.699944137579838e-17 -3.3972225358373355e-18 1.0
  outer loop
    vertex 202.79733150196884 829.4730344662592 2.5000000000000897
    vertex 205.29733150196884 825.973034466259 2.50000000000009
    vertex 202.79733150196884 845.4730344662592 2.50000000000009
  endloop
endfacet
facet normal -4.699944137579838e-17 -3.3972225358373355e-18 1.0
  outer loop
    vertex 202.79733150196884 845.4730344662592 2.50000000000009
    vertex 205.29733150196884 825.973034466259 2.50000000000009
    vertex 205.29733150196884 845.4730344662592 2.50000000000009
  endloop
endfacet
facet normal -4.699944137579838e-17 -3.3972225358373355e-18 1.0
  outer loop
    vertex 205.29733150196884 845.4730344662592 2.50000000000009
    vertex 205.29733150196884 825.973034466259 2.50000000000009
    vertex 205.29733150196884 829.4730344662592 2.50000000000009
  endloop
endfacet
facet normal -1.0 0.0 0.0
  outer loop
    vertex 183.29733150196887 847.9730344662593 2.50000000000009
    vertex 183.29733150196887 845.4730344662592 1.5000000000000904
    vertex 183.29733150196887 845.4730344662592 2.50000000000009
  endloop
endfacet
facet normal -1.0 0.0 0.0
  outer loop
    vertex 183.29733150196887 845.4730344662592 1.5000000000000904
    vertex 183.29733150196887 847.9730344662593 2.50000000000009
    vertex 183.29733150196887 847.9730344662593 1.5000000000000904
  endloop
endfacet
facet normal 1.0 -0.0 -0.0
  outer loop
    vertex 205.29733150196884 845.4730344662592 1.5000000000000904
    vertex 205.29733150196884 829.4730344662592 2.50000000000009
    vertex 205.29733150196884 829.4730344662592 1.5000000000000904
  endloop
endfacet
facet normal 1.0 -0.0 -0.0
  outer loop
    vertex 205.29733150196884 829.4730344662592 2.50000000000009
    vertex 205.29733150196884 845.4730344662592 1.5000000000000904
    vertex 205.29733150196884 845.4730344662592 2.50000000000009
  endloop
endfacet
facet normal -6.794445071674781e-18 -0.0 1.0
  outer loop
    vertex 186.79733150196887 845.4730344662592 2.5000000000000897
    vertex 183.29733150196887 847.9730344662593 2.50000000000009
    vertex 183.29733150196887 845.4730344662592 2.50000000000009
  endloop
endfacet
facet normal -6.794445071674781e-18 -0.0 1.0
  outer loop
    vertex 183.29733150196887 847.9730344662593 2.50000000000009
    vertex 186.79733150196887 845.4730344662592 2.5000000000000897
    vertex 186.79733150196887 847.9730344662593 2.5000000000000897
  endloop
endfacet
facet normal -6.794445071674781e-18 -0.0 1.0
  outer loop
    vertex 186.79733150196887 847.9730344662593 2.5000000000000897
    vertex 186.79733150196887 845.4730344662592 2.5000000000000897
    vertex 202.79733150196884 845.4730344662592 2.50000000000009
  endloop
endfacet
facet normal -6.794445071674781e-18 -0.0 1.0
  outer loop
    vertex 186.79733150196887 847.9730344662593 2.5000000000000897
    vertex 202.79733150196884 845.4730344662592 2.50000000000009
    vertex 202.79733150196884 847.9730344662593 2.50000000000009
  endloop
endfacet
facet normal 0.0 -1.0 0.0
  outer loop
    vertex 205.29733150196884 825.973034466259 2.50000000000009
    vertex 202.79733150196884 825.973034466259 1.5000000000000904
    vertex 205.29733150196884 825.973034466259 1.5000000000000904
  endloop
endfacet
facet normal 0.0 -1.0 0.0
  outer loop
    vertex 202.79733150196884 825.973034466259 1.5000000000000904
    vertex 205.29733150196884 825.973034466259 2.50000000000009
    vertex 202.79733150196884 825.973034466259 2.50000000000009
  endloop
endfacet
facet normal -0.0 1.0 -0.0
  outer loop
    vertex 186.79733150196887 847.9730344662593 2.5000000000000897
    vertex 202.79733150196884 847.9730344662593 1.5000000000000904
    vertex 186.79733150196887 847.9730344662593 1.5000000000000904
  endloop
endfacet
facet normal -0.0 1.0 -0.0
  outer loop
    vertex 202.79733150196884 847.9730344662593 1.5000000000000904
    vertex 186.79733150196887 847.9730344662593 2.5000000000000897
    vertex 202.79733150196884 847.9730344662593 2.50000000000009
  endloop
endfacet
facet normal -0.0 -0.0 1.0
  outer loop
    vertex 202.79733150196884 845.4730344662592 2.50000000000009
    vertex 203.08140567567986 846.4642154211567 2.50000000000009
    vertex 202.79733150196884 847.9730344662593 2.50000000000009
  endloop
endfacet
facet normal -0.0 -0.0 1.0
  outer loop
    vertex 203.08140567567986 846.4642154211567 2.50000000000009
    vertex 202.79733150196884 845.4730344662592 2.50000000000009
    vertex 203.18130609818448 846.2230344662592 2.50000000000009
  endloop
endfacet
facet normal -0.0 -0.0 1.0
  outer loop
    vertex 203.18130609818448 846.2230344662592 2.50000000000009
    vertex 202.79733150196884 845.4730344662592 2.50000000000009
    vertex 203.34022472078237 846.0159276850726 2.50000000000009
  endloop
endfacet
facet normal -0.0 -0.0 1.0
  outer loop
    vertex 203.34022472078237 846.0159276850726 2.50000000000009
    vertex 202.79733150196884 845.4730344662592 2.50000000000009
    vertex 203.5473315019689 845.8570090624748 2.50000000000009
  endloop
endfacet
facet normal -0.0 -0.0 1.0
  outer loop
    vertex 203.5473315019689 845.8570090624748 2.50000000000009
    vertex 202.79733150196884 845.4730344662592 2.50000000000009
    vertex 203.78851245686639 845.7571086399703 2.50000000000009
  endloop
endfacet
facet normal -0.0 -0.0 1.0
  outer loop
    vertex 203.78851245686639 845.7571086399703 2.50000000000009
    vertex 202.79733150196884 845.4730344662592 2.50000000000009
    vertex 205.29733150196884 845.4730344662592 2.50000000000009
  endloop
endfacet
facet normal -0.0 -0.0 1.0
  outer loop
    vertex 202.79733150196884 847.9730344662593 2.50000000000009
    vertex 203.08140567567986 846.4642154211567 2.50000000000009
    vertex 203.0473315019689 846.7230344662593 2.50000000000009
  endloop
endfacet
facet normal -0.0 -0.0 1.0
  outer loop
    vertex 203.78851245686639 845.7571086399703 2.50000000000009
    vertex 205.29733150196884 845.4730344662592 2.50000000000009
    vertex 204.04733150196887 845.7230344662593 2.50000000000009
  endloop
endfacet
facet normal -0.0 -0.0 1.0
  outer loop
    vertex 204.04733150196887 845.7230344662593 2.50000000000009
    vertex 205.29733150196884 845.4730344662592 2.50000000000009
    vertex 204.30615054707135 845.7571086399703 2.50000000000009
  endloop
endfacet
facet normal -0.0 -0.0 1.0
  outer loop
    vertex 204.30615054707135 845.7571086399703 2.50000000000009
    vertex 205.29733150196884 845.4730344662592 2.50000000000009
    vertex 204.54733150196884 845.8570090624748 2.50000000000009
  endloop
endfacet
facet normal -0.0 -0.0 1.0
  outer loop
    vertex 204.54733150196884 845.8570090624748 2.50000000000009
    vertex 205.29733150196884 845.4730344662592 2.50000000000009
    vertex 204.75443828315537 846.0159276850726 2.50000000000009
  endloop
endfacet
facet normal -0.0 -0.0 1.0
  outer loop
    vertex 204.75443828315537 846.0159276850726 2.50000000000009
    vertex 205.29733150196884 845.4730344662592 2.50000000000009
    vertex 204.91335690575326 846.2230344662594 2.50000000000009
  endloop
endfacet
facet normal -0.0 -0.0 1.0
  outer loop
    vertex 204.91335690575326 846.2230344662594 2.50000000000009
    vertex 205.29733150196884 845.4730344662592 2.50000000000009
    vertex 205.0132573282579 846.4642154211567 2.50000000000009
  endloop
endfacet
facet normal -0.0 -0.0 1.0
  outer loop
    vertex 205.0132573282579 846.4642154211567 2.50000000000009
    vertex 205.29733150196884 845.4730344662592 2.50000000000009
    vertex 205.0473315019688 846.7230344662593 2.50000000000009
  endloop
endfacet
facet normal -0.0 -0.0 1.0
  outer loop
    vertex 202.79733150196884 847.9730344662593 2.50000000000009
    vertex 203.78851245686639 847.6889602925481 2.50000000000009
    vertex 205.29733150196884 847.9730344662593 2.50000000000009
  endloop
endfacet
facet normal -0.0 -0.0 1.0
  outer loop
    vertex 203.78851245686639 847.6889602925481 2.50000000000009
    vertex 202.79733150196884 847.9730344662593 2.50000000000009
    vertex 203.5473315019689 847.5890598700436 2.50000000000009
  endloop
endfacet
facet normal -0.0 -0.0 1.0
  outer loop
    vertex 203.5473315019689 847.5890598700436 2.50000000000009
    vertex 202.79733150196884 847.9730344662593 2.50000000000009
    vertex 203.34022472078237 847.4301412474458 2.50000000000009
  endloop
endfacet
facet normal -0.0 -0.0 1.0
  outer loop
    vertex 203.34022472078237 847.4301412474458 2.50000000000009
    vertex 202.79733150196884 847.9730344662593 2.50000000000009
    vertex 203.18130609818448 847.2230344662592 2.50000000000009
  endloop
endfacet
facet normal -0.0 -0.0 1.0
  outer loop
    vertex 203.18130609818448 847.2230344662592 2.50000000000009
    vertex 202.79733150196884 847.9730344662593 2.50000000000009
    vertex 203.08140567567986 846.9818535113618 2.50000000000009
  endloop
endfacet
facet normal -0.0 -0.0 1.0
  outer loop
    vertex 203.08140567567986 846.9818535113618 2.50000000000009
    vertex 202.79733150196884 847.9730344662593 2.50000000000009
    vertex 203.0473315019689 846.7230344662593 2.50000000000009
  endloop
endfacet
facet normal -0.0 -0.0 1.0
  outer loop
    vertex 205.29733150196884 847.9730344662593 2.50000000000009
    vertex 203.78851245686639 847.6889602925481 2.50000000000009
    vertex 204.04733150196887 847.7230344662592 2.50000000000009
  endloop
endfacet
facet normal -0.0 -0.0 1.0
  outer loop
    vertex 205.29733150196884 847.9730344662593 2.50000000000009
    vertex 204.04733150196887 847.7230344662592 2.50000000000009
    vertex 204.30615054707135 847.6889602925481 2.50000000000009
  endloop
endfacet
facet normal -0.0 -0.0 1.0
  outer loop
    vertex 205.29733150196884 847.9730344662593 2.50000000000009
    vertex 204.30615054707135 847.6889602925481 2.50000000000009
    vertex 204.54733150196884 847.5890598700436 2.50000000000009
  endloop
endfacet
facet normal -0.0 -0.0 1.0
  outer loop
    vertex 205.29733150196884 847.9730344662593 2.50000000000009
    vertex 204.54733150196884 847.5890598700436 2.50000000000009
    vertex 204.75443828315537 847.4301412474458 2.50000000000009
  endloop
endfacet
facet normal -0.0 -0.0 1.0
  outer loop
    vertex 205.29733150196884 847.9730344662593 2.50000000000009
    vertex 204.75443828315537 847.4301412474458 2.50000000000009
    vertex 204.91335690575326 847.2230344662593 2.50000000000009
  endloop
endfacet
facet normal -0.0 -0.0 1.0
  outer loop
    vertex 205.29733150196884 847.9730344662593 2.50000000000009
    vertex 204.91335690575326 847.2230344662593 2.50000000000009
    vertex 205.0132573282579 846.9818535113618 2.50000000000009
  endloop
endfacet
facet normal -0.0 -0.0 1.0
  outer loop
    vertex 205.29733150196884 847.9730344662593 2.50000000000009
    vertex 205.0132573282579 846.9818535113618 2.50000000000009
    vertex 205.0473315019688 846.7230344662593 2.50000000000009
  endloop
endfacet
facet normal -0.0 -0.0 1.0
  outer loop
    vertex 205.29733150196884 847.9730344662593 2.50000000000009
    vertex 205.0473315019688 846.7230344662593 2.50000000000009
    vertex 205.29733150196884 845.4730344662592 2.50000000000009
  endloop
endfacet
facet normal -1.0 0.0 0.0
  outer loop
    vertex 202.79733150196884 845.4730344662592 2.50000000000009
    vertex 202.79733150196884 829.4730344662592 1.5000000000000904
    vertex 202.79733150196884 829.4730344662592 2.5000000000000897
  endloop
endfacet
facet normal -1.0 0.0 0.0
  outer loop
    vertex 202.79733150196884 829.4730344662592 1.5000000000000904
    vertex 202.79733150196884 845.4730344662592 2.50000000000009
    vertex 202.79733150196884 845.4730344662592 1.5000000000000904
  endloop
endfacet
facet normal 0.0 -1.0 0.0
  outer loop
    vertex 202.79733150196884 845.4730344662592 2.50000000000009
    vertex 186.79733150196887 845.4730344662592 1.5000000000000904
    vertex 202.79733150196884 845.4730344662592 1.5000000000000904
  endloop
endfacet
facet normal 0.0 -1.0 0.0
  outer loop
    vertex 186.79733150196887 845.4730344662592 1.5000000000000904
    vertex 202.79733150196884 845.4730344662592 2.50000000000009
    vertex 186.79733150196887 845.4730344662592 2.5000000000000897
  endloop
endfacet
facet normal -0.0 -0.0 1.0
  outer loop
    vertex 205.29733150196884 829.4730344662592 1.5000000000000904
    vertex 206.29733150196884 830.4730344662592 1.5000000000000904
    vertex 205.29733150196884 845.4730344662592 1.5000000000000904
  endloop
endfacet
facet normal -0.0 -0.0 1.0
  outer loop
    vertex 206.29733150196884 830.4730344662592 1.5000000000000904
    vertex 205.29733150196884 829.4730344662592 1.5000000000000904
    vertex 221.29733150196887 829.4730344662592 1.5000000000000904
  endloop
endfacet
facet normal -0.0 -0.0 1.0
  outer loop
    vertex 206.29733150196884 830.4730344662592 1.5000000000000904
    vertex 221.29733150196887 829.4730344662592 1.5000000000000904
    vertex 220.29733150196887 830.4730344662592 1.5000000000000904
  endloop
endfacet
facet normal -0.0 -0.0 1.0
  outer loop
    vertex 220.29733150196887 830.4730344662592 1.5000000000000904
    vertex 221.29733150196887 829.4730344662592 1.5000000000000904
    vertex 220.29733150196887 844.4730344662592 1.5000000000000904
  endloop
endfacet
facet normal -0.0 -0.0 1.0
  outer loop
    vertex 205.29733150196884 845.4730344662592 1.5000000000000904
    vertex 206.29733150196884 844.4730344662592 1.5000000000000904
    vertex 221.29733150196887 845.4730344662592 1.5000000000000904
  endloop
endfacet
facet normal -0.0 -0.0 1.0
  outer loop
    vertex 206.29733150196884 844.4730344662592 1.5000000000000904
    vertex 205.29733150196884 845.4730344662592 1.5000000000000904
    vertex 206.29733150196884 830.4730344662592 1.5000000000000904
  endloop
endfacet
facet normal -0.0 -0.0 1.0
  outer loop
    vertex 221.29733150196887 845.4730344662592 1.5000000000000904
    vertex 206.29733150196884 844.4730344662592 1.5000000000000904
    vertex 220.29733150196887 844.4730344662592 1.5000000000000904
  endloop
endfacet
facet normal -0.0 -0.0 1.0
  outer loop
    vertex 221.29733150196887 845.4730344662592 1.5000000000000904
    vertex 220.29733150196887 844.4730344662592 1.5000000000000904
    vertex 221.29733150196887 829.4730344662592 1.5000000000000904
  endloop
endfacet
facet normal -0.0 -0.0 1.0
  outer loop
    vertex 224.79733150196884 825.973034466259 2.50000000000009
    vertex 205.29733150196884 829.4730344662592 2.50000000000009
    vertex 205.29733150196884 825.973034466259 2.50000000000009
  endloop
endfacet
facet normal -0.0 -0.0 1.0
  outer loop
    vertex 205.29733150196884 829.4730344662592 2.50000000000009
    vertex 224.79733150196884 825.973034466259 2.50000000000009
    vertex 221.29733150196887 829.4730344662592 2.50000000000009
  endloop
endfacet
facet normal -0.0 -0.0 1.0
  outer loop
    vertex 221.29733150196887 829.4730344662592 2.50000000000009
    vertex 224.79733150196884 825.973034466259 2.50000000000009
    vertex 221.29733150196887 845.4730344662592 2.50000000000009
  endloop
endfacet
facet normal -0.0 -0.0 1.0
  outer loop
    vertex 221.29733150196887 845.4730344662592 2.50000000000009
    vertex 224.79733150196884 825.973034466259 2.50000000000009
    vertex 224.79733150196884 845.4730344662592 2.50000000000009
  endloop
endfacet
facet normal -0.0 1.0 -0.0
  outer loop
    vertex 205.29733150196884 829.4730344662592 2.50000000000009
    vertex 221.29733150196887 829.4730344662592 1.5000000000000904
    vertex 205.29733150196884 829.4730344662592 1.5000000000000904
  endloop
endfacet
facet normal -0.0 1.0 -0.0
  outer loop
    vertex 221.29733150196887 829.4730344662592 1.5000000000000904
    vertex 205.29733150196884 829.4730344662592 2.50000000000009
    vertex 221.29733150196887 829.4730344662592 2.50000000000009
  endloop
endfacet
facet normal -1.0 0.0 0.0
  outer loop
    vertex 221.29733150196887 845.4730344662592 2.50000000000009
    vertex 221.29733150196887 829.4730344662592 1.5000000000000904
    vertex 221.29733150196887 829.4730344662592 2.50000000000009
  endloop
endfacet
facet normal -1.0 0.0 0.0
  outer loop
    vertex 221.29733150196887 829.4730344662592 1.5000000000000904
    vertex 221.29733150196887 845.4730344662592 2.50000000000009
    vertex 221.29733150196887 845.4730344662592 1.5000000000000904
  endloop
endfacet
facet normal 0.1305261922203436 0.991444861373772 0.0
  outer loop
    vertex 203.78851245686639 845.7571086399703 2.50000000000009
    vertex 204.04733150196887 845.7230344662593 9.023892744153272e-14
    vertex 203.78851245686639 845.7571086399703 9.023892744153272e-14
  endloop
endfacet
facet normal 0.1305261922203436 0.991444861373772 0.0
  outer loop
    vertex 204.04733150196887 845.7230344662593 9.023892744153272e-14
    vertex 203.78851245686639 845.7571086399703 2.50000000000009
    vertex 204.04733150196887 845.7230344662593 2.50000000000009
  endloop
endfacet
facet normal 0.7933533402912196 0.6087614290087409 0.0
  outer loop
    vertex 203.18130609818448 846.2230344662592 9.023892744153272e-14
    vertex 203.34022472078237 846.0159276850726 2.50000000000009
    vertex 203.34022472078237 846.0159276850726 9.023892744153272e-14
  endloop
endfacet
facet normal 0.7933533402912196 0.6087614290087409 0.0
  outer loop
    vertex 203.34022472078237 846.0159276850726 2.50000000000009
    vertex 203.18130609818448 846.2230344662592 9.023892744153272e-14
    vertex 203.18130609818448 846.2230344662592 2.50000000000009
  endloop
endfacet
facet normal 0.6087614290085233 0.7933533402913866 0.0
  outer loop
    vertex 203.34022472078237 846.0159276850726 2.50000000000009
    vertex 203.5473315019689 845.8570090624748 9.023892744153272e-14
    vertex 203.34022472078237 846.0159276850726 9.023892744153272e-14
  endloop
endfacet
facet normal 0.6087614290085233 0.7933533402913866 0.0
  outer loop
    vertex 203.5473315019689 845.8570090624748 9.023892744153272e-14
    vertex 203.34022472078237 846.0159276850726 2.50000000000009
    vertex 203.5473315019689 845.8570090624748 2.50000000000009
  endloop
endfacet
facet normal 0.9914448613738085 0.1305261922200664 0.0
  outer loop
    vertex 203.0473315019689 846.7230344662593 9.023892744153272e-14
    vertex 203.08140567567986 846.4642154211567 2.50000000000009
    vertex 203.08140567567986 846.4642154211567 9.023892744153272e-14
  endloop
endfacet
facet normal 0.9914448613738085 0.1305261922200664 0.0
  outer loop
    vertex 203.08140567567986 846.4642154211567 2.50000000000009
    vertex 203.0473315019689 846.7230344662593 9.023892744153272e-14
    vertex 203.0473315019689 846.7230344662593 2.50000000000009
  endloop
endfacet
facet normal 0.9238795325113202 0.38268343236500957 0.0
  outer loop
    vertex 203.08140567567986 846.4642154211567 9.023892744153272e-14
    vertex 203.18130609818448 846.2230344662592 2.50000000000009
    vertex 203.18130609818448 846.2230344662592 9.023892744153272e-14
  endloop
endfacet
facet normal 0.9238795325113202 0.38268343236500957 0.0
  outer loop
    vertex 203.18130609818448 846.2230344662592 2.50000000000009
    vertex 203.08140567567986 846.4642154211567 9.023892744153272e-14
    vertex 203.08140567567986 846.4642154211567 2.50000000000009
  endloop
endfacet
facet normal 0.3826834323648494 0.9238795325113865 0.0
  outer loop
    vertex 203.5473315019689 845.8570090624748 2.50000000000009
    vertex 203.78851245686639 845.7571086399703 9.023892744153272e-14
    vertex 203.5473315019689 845.8570090624748 9.023892744153272e-14
  endloop
endfacet
facet normal 0.3826834323648494 0.9238795325113865 0.0
  outer loop
    vertex 203.78851245686639 845.7571086399703 9.023892744153272e-14
    vertex 203.5473315019689 845.8570090624748 2.50000000000009
    vertex 203.78851245686639 845.7571086399703 2.50000000000009
  endloop
endfacet
facet normal -0.3826834323648494 0.9238795325113865 -0.0
  outer loop
    vertex 204.30615054707135 845.7571086399703 2.50000000000009
    vertex 204.54733150196884 845.8570090624748 9.023892744153272e-14
    vertex 204.30615054707135 845.7571086399703 9.023892744153272e-14
  endloop
endfacet
facet normal -0.3826834323648494 0.9238795325113865 -0.0
  outer loop
    vertex 204.54733150196884 845.8570090624748 9.023892744153272e-14
    vertex 204.30615054707135 845.7571086399703 2.50000000000009
    vertex 204.54733150196884 845.8570090624748 2.50000000000009
  endloop
endfacet
facet normal -0.9238795325111883 0.38268343236532776 -0.0
  outer loop
    vertex 205.0132573282579 846.4642154211567 2.50000000000009
    vertex 204.91335690575326 846.2230344662594 9.023892744153272e-14
    vertex 204.91335690575326 846.2230344662594 2.50000000000009
  endloop
endfacet
facet normal -0.9238795325111883 0.38268343236532776 -0.0
  outer loop
    vertex 204.91335690575326 846.2230344662594 9.023892744153272e-14
    vertex 205.0132573282579 846.4642154211567 2.50000000000009
    vertex 205.0132573282579 846.4642154211567 9.023892744153272e-14
  endloop
endfacet
facet normal -0.9914448613738197 0.13052619221998144 -0.0
  outer loop
    vertex 205.0473315019688 846.7230344662593 2.50000000000009
    vertex 205.0132573282579 846.4642154211567 9.023892744153272e-14
    vertex 205.0132573282579 846.4642154211567 2.50000000000009
  endloop
endfacet
facet normal -0.9914448613738197 0.13052619221998144 -0.0
  outer loop
    vertex 205.0132573282579 846.4642154211567 9.023892744153272e-14
    vertex 205.0473315019688 846.7230344662593 2.50000000000009
    vertex 205.0473315019688 846.7230344662593 9.023892744153272e-14
  endloop
endfacet
facet normal -0.1305261922203436 0.991444861373772 -0.0
  outer loop
    vertex 204.04733150196887 845.7230344662593 2.50000000000009
    vertex 204.30615054707135 845.7571086399703 9.023892744153272e-14
    vertex 204.04733150196887 845.7230344662593 9.023892744153272e-14
  endloop
endfacet
facet normal -0.1305261922203436 0.991444861373772 -0.0
  outer loop
    vertex 204.30615054707135 845.7571086399703 9.023892744153272e-14
    vertex 204.04733150196887 845.7230344662593 2.50000000000009
    vertex 204.30615054707135 845.7571086399703 2.50000000000009
  endloop
endfacet
facet normal -0.793353340291476 0.608761429008407 -0.0
  outer loop
    vertex 204.91335690575326 846.2230344662594 2.50000000000009
    vertex 204.75443828315537 846.0159276850726 9.023892744153272e-14
    vertex 204.75443828315537 846.0159276850726 2.50000000000009
  endloop
endfacet
facet normal -0.793353340291476 0.608761429008407 -0.0
  outer loop
    vertex 204.75443828315537 846.0159276850726 9.023892744153272e-14
    vertex 204.91335690575326 846.2230344662594 2.50000000000009
    vertex 204.91335690575326 846.2230344662594 9.023892744153272e-14
  endloop
endfacet
facet normal -0.9914448613738197 -0.13052619221998144 -0.0
  outer loop
    vertex 205.0132573282579 846.9818535113618 2.50000000000009
    vertex 205.0473315019688 846.7230344662593 9.023892744153272e-14
    vertex 205.0473315019688 846.7230344662593 2.50000000000009
  endloop
endfacet
facet normal -0.9914448613738197 -0.13052619221998144 -0.0
  outer loop
    vertex 205.0473315019688 846.7230344662593 9.023892744153272e-14
    vertex 205.0132573282579 846.9818535113618 2.50000000000009
    vertex 205.0132573282579 846.9818535113618 9.023892744153272e-14
  endloop
endfacet
facet normal -0.9238795325112895 -0.38268343236508334 -0.0
  outer loop
    vertex 204.91335690575326 847.2230344662593 2.50000000000009
    vertex 205.0132573282579 846.9818535113618 9.023892744153272e-14
    vertex 205.0132573282579 846.9818535113618 2.50000000000009
  endloop
endfacet
facet normal -0.9238795325112895 -0.38268343236508334 -0.0
  outer loop
    vertex 205.0132573282579 846.9818535113618 9.023892744153272e-14
    vertex 204.91335690575326 847.2230344662593 2.50000000000009
    vertex 204.91335690575326 847.2230344662593 9.023892744153272e-14
  endloop
endfacet
facet normal -0.6087614290085233 0.7933533402913866 -0.0
  outer loop
    vertex 204.54733150196884 845.8570090624748 2.50000000000009
    vertex 204.75443828315537 846.0159276850726 9.023892744153272e-14
    vertex 204.54733150196884 845.8570090624748 9.023892744153272e-14
  endloop
endfacet
facet normal -0.6087614290085233 0.7933533402913866 -0.0
  outer loop
    vertex 204.75443828315537 846.0159276850726 9.023892744153272e-14
    vertex 204.54733150196884 845.8570090624748 2.50000000000009
    vertex 204.75443828315537 846.0159276850726 2.50000000000009
  endloop
endfacet
facet normal 0.3826834323648494 -0.9238795325113865 -0.0
  outer loop
    vertex 203.78851245686639 847.6889602925481 2.50000000000009
    vertex 203.5473315019689 847.5890598700436 9.023892744153272e-14
    vertex 203.78851245686639 847.6889602925481 9.023892744153272e-14
  endloop
endfacet
facet normal 0.3826834323648494 -0.9238795325113865 -0.0
  outer loop
    vertex 203.5473315019689 847.5890598700436 9.023892744153272e-14
    vertex 203.78851245686639 847.6889602925481 2.50000000000009
    vertex 203.5473315019689 847.5890598700436 2.50000000000009
  endloop
endfacet
facet normal 0.6087614290085233 -0.7933533402913866 -0.0
  outer loop
    vertex 203.5473315019689 847.5890598700436 2.50000000000009
    vertex 203.34022472078237 847.4301412474458 9.023892744153272e-14
    vertex 203.5473315019689 847.5890598700436 9.023892744153272e-14
  endloop
endfacet
facet normal 0.6087614290085233 -0.7933533402913866 -0.0
  outer loop
    vertex 203.34022472078237 847.4301412474458 9.023892744153272e-14
    vertex 203.5473315019689 847.5890598700436 2.50000000000009
    vertex 203.34022472078237 847.4301412474458 2.50000000000009
  endloop
endfacet
facet normal -0.7933533402912196 -0.6087614290087409 -0.0
  outer loop
    vertex 204.75443828315537 847.4301412474458 2.50000000000009
    vertex 204.91335690575326 847.2230344662593 9.023892744153272e-14
    vertex 204.91335690575326 847.2230344662593 2.50000000000009
  endloop
endfacet
facet normal -0.7933533402912196 -0.6087614290087409 -0.0
  outer loop
    vertex 204.91335690575326 847.2230344662593 9.023892744153272e-14
    vertex 204.75443828315537 847.4301412474458 2.50000000000009
    vertex 204.75443828315537 847.4301412474458 9.023892744153272e-14
  endloop
endfacet
facet normal -0.1305261922203436 -0.991444861373772 -0.0
  outer loop
    vertex 204.30615054707135 847.6889602925481 2.50000000000009
    vertex 204.04733150196887 847.7230344662592 9.023892744153272e-14
    vertex 204.30615054707135 847.6889602925481 9.023892744153272e-14
  endloop
endfacet
facet normal -0.1305261922203436 -0.991444861373772 -0.0
  outer loop
    vertex 204.04733150196887 847.7230344662592 9.023892744153272e-14
    vertex 204.30615054707135 847.6889602925481 2.50000000000009
    vertex 204.04733150196887 847.7230344662592 2.50000000000009
  endloop
endfacet
facet normal 0.1305261922203436 -0.991444861373772 -0.0
  outer loop
    vertex 204.04733150196887 847.7230344662592 2.50000000000009
    vertex 203.78851245686639 847.6889602925481 9.023892744153272e-14
    vertex 204.04733150196887 847.7230344662592 9.023892744153272e-14
  endloop
endfacet
facet normal 0.1305261922203436 -0.991444861373772 -0.0
  outer loop
    vertex 203.78851245686639 847.6889602925481 9.023892744153272e-14
    vertex 204.04733150196887 847.7230344662592 2.50000000000009
    vertex 203.78851245686639 847.6889602925481 2.50000000000009
  endloop
endfacet
facet normal 0.793353340291476 -0.608761429008407 -0.0
  outer loop
    vertex 203.34022472078237 847.4301412474458 9.023892744153272e-14
    vertex 203.18130609818448 847.2230344662592 2.50000000000009
    vertex 203.18130609818448 847.2230344662592 9.023892744153272e-14
  endloop
endfacet
facet normal 0.793353340291476 -0.608761429008407 -0.0
  outer loop
    vertex 203.18130609818448 847.2230344662592 2.50000000000009
    vertex 203.34022472078237 847.4301412474458 9.023892744153272e-14
    vertex 203.34022472078237 847.4301412474458 2.50000000000009
  endloop
endfacet
facet normal 0.9914448613738085 -0.1305261922200664 -0.0
  outer loop
    vertex 203.08140567567986 846.9818535113618 9.023892744153272e-14
    vertex 203.0473315019689 846.7230344662593 2.50000000000009
    vertex 203.0473315019689 846.7230344662593 9.023892744153272e-14
  endloop
endfacet
facet normal 0.9914448613738085 -0.1305261922200664 -0.0
  outer loop
    vertex 203.0473315019689 846.7230344662593 2.50000000000009
    vertex 203.08140567567986 846.9818535113618 9.023892744153272e-14
    vertex 203.08140567567986 846.9818535113618 2.50000000000009
  endloop
endfacet
facet normal -0.6087614290085233 -0.7933533402913866 -0.0
  outer loop
    vertex 204.75443828315537 847.4301412474458 2.50000000000009
    vertex 204.54733150196884 847.5890598700436 9.023892744153272e-14
    vertex 204.75443828315537 847.4301412474458 9.023892744153272e-14
  endloop
endfacet
facet normal -0.6087614290085233 -0.7933533402913866 -0.0
  outer loop
    vertex 204.54733150196884 847.5890598700436 9.023892744153272e-14
    vertex 204.75443828315537 847.4301412474458 2.50000000000009
    vertex 204.54733150196884 847.5890598700436 2.50000000000009
  endloop
endfacet
facet normal -0.3826834323648494 -0.9238795325113865 -0.0
  outer loop
    vertex 204.54733150196884 847.5890598700436 2.50000000000009
    vertex 204.30615054707135 847.6889602925481 9.023892744153272e-14
    vertex 204.54733150196884 847.5890598700436 9.023892744153272e-14
  endloop
endfacet
facet normal -0.3826834323648494 -0.9238795325113865 -0.0
  outer loop
    vertex 204.30615054707135 847.6889602925481 9.023892744153272e-14
    vertex 204.54733150196884 847.5890598700436 2.50000000000009
    vertex 204.30615054707135 847.6889602925481 2.50000000000009
  endloop
endfacet
facet normal 0.9238795325112189 -0.382683432365254 -0.0
  outer loop
    vertex 203.18130609818448 847.2230344662592 9.023892744153272e-14
    vertex 203.08140567567986 846.9818535113618 2.50000000000009
    vertex 203.08140567567986 846.9818535113618 9.023892744153272e-14
  endloop
endfacet
facet normal 0.9238795325112189 -0.382683432365254 -0.0
  outer loop
    vertex 203.08140567567986 846.9818535113618 2.50000000000009
    vertex 203.18130609818448 847.2230344662592 9.023892744153272e-14
    vertex 203.18130609818448 847.2230344662592 2.50000000000009
  endloop
endfacet
facet normal 0.0 0.0 -1.0
  outer loop
    vertex 183.29733150196887 867.4730344662594 9.023892744153272e-14
    vertex 187.79733150196887 862.9730344662593 9.023892744153272e-14
    vertex 183.29733150196887 825.973034466259 9.023892744153272e-14
  endloop
endfacet
facet normal 0.0 0.0 -1.0
  outer loop
    vertex 187.79733150196887 862.9730344662593 9.023892744153272e-14
    vertex 183.29733150196887 867.4730344662594 9.023892744153272e-14
    vertex 224.79733150196884 867.4730344662594 9.023892744153272e-14
  endloop
endfacet
facet normal 0.0 0.0 -1.0
  outer loop
    vertex 187.79733150196887 862.9730344662593 9.023892744153272e-14
    vertex 224.79733150196884 867.4730344662594 9.023892744153272e-14
    vertex 201.79733150196887 862.9730344662593 9.023892744153272e-14
  endloop
endfacet
facet normal 0.0 0.0 -1.0
  outer loop
    vertex 201.79733150196887 862.9730344662593 9.023892744153272e-14
    vertex 224.79733150196884 867.4730344662594 9.023892744153272e-14
    vertex 206.29733150196884 862.9730344662593 9.023892744153272e-14
  endloop
endfacet
facet normal 0.0 0.0 -1.0
  outer loop
    vertex 201.79733150196887 862.9730344662593 9.023892744153272e-14
    vertex 206.29733150196884 862.9730344662593 9.023892744153272e-14
    vertex 201.79733150196887 848.9730344662593 9.023892744153272e-14
  endloop
endfacet
facet normal 0.0 0.0 -1.0
  outer loop
    vertex 201.79733150196887 848.9730344662593 9.023892744153272e-14
    vertex 206.29733150196884 862.9730344662593 9.023892744153272e-14
    vertex 201.79733150196887 844.4730344662592 9.023892744153272e-14
  endloop
endfacet
facet normal 0.0 0.0 -1.0
  outer loop
    vertex 201.79733150196887 844.4730344662592 9.023892744153272e-14
    vertex 206.29733150196884 862.9730344662593 9.023892744153272e-14
    vertex 203.08140567567986 846.9818535113618 9.023892744153272e-14
  endloop
endfacet
facet normal 0.0 0.0 -1.0
  outer loop
    vertex 201.79733150196887 844.4730344662592 9.023892744153272e-14
    vertex 203.08140567567986 846.9818535113618 9.023892744153272e-14
    vertex 203.0473315019689 846.7230344662593 9.023892744153272e-14
  endloop
endfacet
facet normal 0.0 0.0 -1.0
  outer loop
    vertex 201.79733150196887 844.4730344662592 9.023892744153272e-14
    vertex 203.0473315019689 846.7230344662593 9.023892744153272e-14
    vertex 201.79733150196887 830.4730344662592 9.023892744153272e-14
  endloop
endfacet
facet normal 0.0 0.0 -1.0
  outer loop
    vertex 203.08140567567986 846.9818535113618 9.023892744153272e-14
    vertex 206.29733150196884 862.9730344662593 9.023892744153272e-14
    vertex 203.18130609818448 847.2230344662592 9.023892744153272e-14
  endloop
endfacet
facet normal 0.0 0.0 -1.0
  outer loop
    vertex 203.18130609818448 847.2230344662592 9.023892744153272e-14
    vertex 206.29733150196884 862.9730344662593 9.023892744153272e-14
    vertex 203.34022472078237 847.4301412474458 9.023892744153272e-14
  endloop
endfacet
facet normal 0.0 0.0 -1.0
  outer loop
    vertex 203.34022472078237 847.4301412474458 9.023892744153272e-14
    vertex 206.29733150196884 862.9730344662593 9.023892744153272e-14
    vertex 203.5473315019689 847.5890598700436 9.023892744153272e-14
  endloop
endfacet
facet normal 0.0 0.0 -1.0
  outer loop
    vertex 203.5473315019689 847.5890598700436 9.023892744153272e-14
    vertex 206.29733150196884 862.9730344662593 9.023892744153272e-14
    vertex 203.78851245686639 847.6889602925481 9.023892744153272e-14
  endloop
endfacet
facet normal 0.0 0.0 -1.0
  outer loop
    vertex 203.78851245686639 847.6889602925481 9.023892744153272e-14
    vertex 206.29733150196884 862.9730344662593 9.023892744153272e-14
    vertex 204.04733150196887 847.7230344662592 9.023892744153272e-14
  endloop
endfacet
facet normal 0.0 0.0 -1.0
  outer loop
    vertex 204.04733150196887 847.7230344662592 9.023892744153272e-14
    vertex 206.29733150196884 862.9730344662593 9.023892744153272e-14
    vertex 204.30615054707135 847.6889602925481 9.023892744153272e-14
  endloop
endfacet
facet normal 0.0 0.0 -1.0
  outer loop
    vertex 204.30615054707135 847.6889602925481 9.023892744153272e-14
    vertex 206.29733150196884 862.9730344662593 9.023892744153272e-14
    vertex 204.54733150196884 847.5890598700436 9.023892744153272e-14
  endloop
endfacet
facet normal 0.0 0.0 -1.0
  outer loop
    vertex 204.54733150196884 847.5890598700436 9.023892744153272e-14
    vertex 206.29733150196884 862.9730344662593 9.023892744153272e-14
    vertex 204.75443828315537 847.4301412474458 9.023892744153272e-14
  endloop
endfacet
facet normal 0.0 0.0 -1.0
  outer loop
    vertex 204.75443828315537 847.4301412474458 9.023892744153272e-14
    vertex 206.29733150196884 862.9730344662593 9.023892744153272e-14
    vertex 204.91335690575326 847.2230344662593 9.023892744153272e-14
  endloop
endfacet
facet normal 0.0 0.0 -1.0
  outer loop
    vertex 204.91335690575326 847.2230344662593 9.023892744153272e-14
    vertex 206.29733150196884 862.9730344662593 9.023892744153272e-14
    vertex 205.0132573282579 846.9818535113618 9.023892744153272e-14
  endloop
endfacet
facet normal 0.0 0.0 -1.0
  outer loop
    vertex 205.0132573282579 846.9818535113618 9.023892744153272e-14
    vertex 206.29733150196884 862.9730344662593 9.023892744153272e-14
    vertex 205.0473315019688 846.7230344662593 9.023892744153272e-14
  endloop
endfacet
facet normal 0.0 0.0 -1.0
  outer loop
    vertex 206.29733150196884 862.9730344662593 9.023892744153272e-14
    vertex 224.79733150196884 867.4730344662594 9.023892744153272e-14
    vertex 220.29733150196887 862.9730344662593 9.023892744153272e-14
  endloop
endfacet
facet normal 0.0 0.0 -1.0
  outer loop
    vertex 220.29733150196887 862.9730344662593 9.023892744153272e-14
    vertex 224.79733150196884 867.4730344662594 9.023892744153272e-14
    vertex 220.29733150196887 848.9730344662593 9.023892744153272e-14
  endloop
endfacet
facet normal 0.0 0.0 -1.0
  outer loop
    vertex 220.29733150196887 848.9730344662593 9.023892744153272e-14
    vertex 224.79733150196884 867.4730344662594 9.023892744153272e-14
    vertex 220.29733150196887 844.4730344662592 9.023892744153272e-14
  endloop
endfacet
facet normal 0.0 0.0 -1.0
  outer loop
    vertex 220.29733150196887 844.4730344662592 9.023892744153272e-14
    vertex 224.79733150196884 867.4730344662594 9.023892744153272e-14
    vertex 220.29733150196887 830.4730344662592 9.023892744153272e-14
  endloop
endfacet
facet normal 0.0 0.0 -1.0
  outer loop
    vertex 183.29733150196887 825.973034466259 9.023892744153272e-14
    vertex 187.79733150196887 830.4730344662592 9.023892744153272e-14
    vertex 224.79733150196884 825.973034466259 9.023892744153272e-14
  endloop
endfacet
facet normal 0.0 0.0 -1.0
  outer loop
    vertex 187.79733150196887 830.4730344662592 9.023892744153272e-14
    vertex 183.29733150196887 825.973034466259 9.023892744153272e-14
    vertex 187.79733150196887 862.9730344662593 9.023892744153272e-14
  endloop
endfacet
facet normal 0.0 0.0 -1.0
  outer loop
    vertex 187.79733150196887 830.4730344662592 9.023892744153272e-14
    vertex 187.79733150196887 862.9730344662593 9.023892744153272e-14
    vertex 187.79733150196887 848.9730344662593 9.023892744153272e-14
  endloop
endfacet
facet normal 0.0 0.0 -1.0
  outer loop
    vertex 187.79733150196887 830.4730344662592 9.023892744153272e-14
    vertex 187.79733150196887 848.9730344662593 9.023892744153272e-14
    vertex 187.79733150196887 844.4730344662592 9.023892744153272e-14
  endloop
endfacet
facet normal 0.0 0.0 -1.0
  outer loop
    vertex 224.79733150196884 825.973034466259 9.023892744153272e-14
    vertex 187.79733150196887 830.4730344662592 9.023892744153272e-14
    vertex 201.79733150196887 830.4730344662592 9.023892744153272e-14
  endloop
endfacet
facet normal 0.0 0.0 -1.0
  outer loop
    vertex 224.79733150196884 825.973034466259 9.023892744153272e-14
    vertex 201.79733150196887 830.4730344662592 9.023892744153272e-14
    vertex 206.29733150196884 830.4730344662592 9.023892744153272e-14
  endloop
endfacet
facet normal 0.0 0.0 -1.0
  outer loop
    vertex 206.29733150196884 830.4730344662592 9.023892744153272e-14
    vertex 201.79733150196887 830.4730344662592 9.023892744153272e-14
    vertex 203.08140567567986 846.4642154211567 9.023892744153272e-14
  endloop
endfacet
facet normal 0.0 0.0 -1.0
  outer loop
    vertex 203.08140567567986 846.4642154211567 9.023892744153272e-14
    vertex 201.79733150196887 830.4730344662592 9.023892744153272e-14
    vertex 203.0473315019689 846.7230344662593 9.023892744153272e-14
  endloop
endfacet
facet normal 0.0 0.0 -1.0
  outer loop
    vertex 206.29733150196884 830.4730344662592 9.023892744153272e-14
    vertex 203.08140567567986 846.4642154211567 9.023892744153272e-14
    vertex 203.18130609818448 846.2230344662592 9.023892744153272e-14
  endloop
endfacet
facet normal 0.0 0.0 -1.0
  outer loop
    vertex 206.29733150196884 830.4730344662592 9.023892744153272e-14
    vertex 203.18130609818448 846.2230344662592 9.023892744153272e-14
    vertex 203.34022472078237 846.0159276850726 9.023892744153272e-14
  endloop
endfacet
facet normal 0.0 0.0 -1.0
  outer loop
    vertex 206.29733150196884 830.4730344662592 9.023892744153272e-14
    vertex 203.34022472078237 846.0159276850726 9.023892744153272e-14
    vertex 203.5473315019689 845.8570090624748 9.023892744153272e-14
  endloop
endfacet
facet normal 0.0 0.0 -1.0
  outer loop
    vertex 206.29733150196884 830.4730344662592 9.023892744153272e-14
    vertex 203.5473315019689 845.8570090624748 9.023892744153272e-14
    vertex 203.78851245686639 845.7571086399703 9.023892744153272e-14
  endloop
endfacet
facet normal 0.0 0.0 -1.0
  outer loop
    vertex 206.29733150196884 830.4730344662592 9.023892744153272e-14
    vertex 203.78851245686639 845.7571086399703 9.023892744153272e-14
    vertex 204.04733150196887 845.7230344662593 9.023892744153272e-14
  endloop
endfacet
facet normal 0.0 0.0 -1.0
  outer loop
    vertex 206.29733150196884 830.4730344662592 9.023892744153272e-14
    vertex 204.04733150196887 845.7230344662593 9.023892744153272e-14
    vertex 204.30615054707135 845.7571086399703 9.023892744153272e-14
  endloop
endfacet
facet normal 0.0 0.0 -1.0
  outer loop
    vertex 206.29733150196884 830.4730344662592 9.023892744153272e-14
    vertex 204.30615054707135 845.7571086399703 9.023892744153272e-14
    vertex 204.54733150196884 845.8570090624748 9.023892744153272e-14
  endloop
endfacet
facet normal 0.0 0.0 -1.0
  outer loop
    vertex 206.29733150196884 830.4730344662592 9.023892744153272e-14
    vertex 204.54733150196884 845.8570090624748 9.023892744153272e-14
    vertex 204.75443828315537 846.0159276850726 9.023892744153272e-14
  endloop
endfacet
facet normal 0.0 0.0 -1.0
  outer loop
    vertex 206.29733150196884 830.4730344662592 9.023892744153272e-14
    vertex 204.75443828315537 846.0159276850726 9.023892744153272e-14
    vertex 204.91335690575326 846.2230344662594 9.023892744153272e-14
  endloop
endfacet
facet normal 0.0 0.0 -1.0
  outer loop
    vertex 206.29733150196884 830.4730344662592 9.023892744153272e-14
    vertex 204.91335690575326 846.2230344662594 9.023892744153272e-14
    vertex 205.0132573282579 846.4642154211567 9.023892744153272e-14
  endloop
endfacet
facet normal 0.0 0.0 -1.0
  outer loop
    vertex 206.29733150196884 830.4730344662592 9.023892744153272e-14
    vertex 205.0132573282579 846.4642154211567 9.023892744153272e-14
    vertex 205.0473315019688 846.7230344662593 9.023892744153272e-14
  endloop
endfacet
facet normal 0.0 0.0 -1.0
  outer loop
    vertex 206.29733150196884 830.4730344662592 9.023892744153272e-14
    vertex 205.0473315019688 846.7230344662593 9.023892744153272e-14
    vertex 206.29733150196884 862.9730344662593 9.023892744153272e-14
  endloop
endfacet
facet normal 0.0 0.0 -1.0
  outer loop
    vertex 206.29733150196884 830.4730344662592 9.023892744153272e-14
    vertex 206.29733150196884 862.9730344662593 9.023892744153272e-14
    vertex 206.29733150196884 848.9730344662593 9.023892744153272e-14
  endloop
endfacet
facet normal 0.0 0.0 -1.0
  outer loop
    vertex 206.29733150196884 830.4730344662592 9.023892744153272e-14
    vertex 206.29733150196884 848.9730344662593 9.023892744153272e-14
    vertex 206.29733150196884 844.4730344662592 9.023892744153272e-14
  endloop
endfacet
facet normal 0.0 0.0 -1.0
  outer loop
    vertex 224.79733150196884 825.973034466259 9.023892744153272e-14
    vertex 206.29733150196884 830.4730344662592 9.023892744153272e-14
    vertex 220.29733150196887 830.4730344662592 9.023892744153272e-14
  endloop
endfacet
facet normal 0.0 0.0 -1.0
  outer loop
    vertex 224.79733150196884 825.973034466259 9.023892744153272e-14
    vertex 220.29733150196887 830.4730344662592 9.023892744153272e-14
    vertex 224.79733150196884 867.4730344662594 9.023892744153272e-14
  endloop
endfacet
facet normal 0.0 0.0 -1.0
  outer loop
    vertex 220.29733150196887 848.9730344662593 9.023892744153272e-14
    vertex 206.29733150196884 844.4730344662592 9.023892744153272e-14
    vertex 206.29733150196884 848.9730344662593 9.023892744153272e-14
  endloop
endfacet
facet normal 0.0 0.0 -1.0
  outer loop
    vertex 206.29733150196884 844.4730344662592 9.023892744153272e-14
    vertex 220.29733150196887 848.9730344662593 9.023892744153272e-14
    vertex 220.29733150196887 844.4730344662592 9.023892744153272e-14
  endloop
endfacet
facet normal 0.0 0.0 -1.0
  outer loop
    vertex 201.79733150196887 848.9730344662593 9.023892744153272e-14
    vertex 187.79733150196887 844.4730344662592 9.023892744153272e-14
    vertex 187.79733150196887 848.9730344662593 9.023892744153272e-14
  endloop
endfacet
facet normal 0.0 0.0 -1.0
  outer loop
    vertex 187.79733150196887 844.4730344662592 9.023892744153272e-14
    vertex 201.79733150196887 848.9730344662593 9.023892744153272e-14
    vertex 201.79733150196887 844.4730344662592 9.023892744153272e-14
  endloop
endfacet
facet normal -6.430058561081458e-18 6.4300585610814086e-18 1.0
  outer loop
    vertex 186.79733150196887 847.9730344662593 2.5000000000000897
    vertex 183.29733150196887 867.4730344662594 2.5000000000000897
    vertex 183.29733150196887 847.9730344662593 2.50000000000009
  endloop
endfacet
facet normal -6.430058561081458e-18 6.4300585610814086e-18 1.0
  outer loop
    vertex 183.29733150196887 867.4730344662594 2.5000000000000897
    vertex 186.79733150196887 847.9730344662593 2.5000000000000897
    vertex 186.79733150196887 863.9730344662593 2.5000000000000897
  endloop
endfacet
facet normal -6.430058561081458e-18 6.4300585610814086e-18 1.0
  outer loop
    vertex 183.29733150196887 867.4730344662594 2.5000000000000897
    vertex 186.79733150196887 863.9730344662593 2.5000000000000897
    vertex 202.79733150196884 867.4730344662594 2.50000000000009
  endloop
endfacet
facet normal -6.430058561081458e-18 6.4300585610814086e-18 1.0
  outer loop
    vertex 202.79733150196884 867.4730344662594 2.50000000000009
    vertex 186.79733150196887 863.9730344662593 2.5000000000000897
    vertex 202.79733150196884 863.9730344662593 2.5000000000000897
  endloop
endfacet
facet normal 0.0 -1.0 0.0
  outer loop
    vertex 202.79733150196884 863.9730344662593 2.5000000000000897
    vertex 186.79733150196887 863.9730344662593 1.5000000000000904
    vertex 202.79733150196884 863.9730344662593 1.5000000000000904
  endloop
endfacet
facet normal 0.0 -1.0 0.0
  outer loop
    vertex 186.79733150196887 863.9730344662593 1.5000000000000904
    vertex 202.79733150196884 863.9730344662593 2.5000000000000897
    vertex 186.79733150196887 863.9730344662593 2.5000000000000897
  endloop
endfacet
facet normal 1.0 -0.0 -0.0
  outer loop
    vertex 186.79733150196887 863.9730344662593 1.5000000000000904
    vertex 186.79733150196887 847.9730344662593 2.5000000000000897
    vertex 186.79733150196887 847.9730344662593 1.5000000000000904
  endloop
endfacet
facet normal 1.0 -0.0 -0.0
  outer loop
    vertex 186.79733150196887 847.9730344662593 2.5000000000000897
    vertex 186.79733150196887 863.9730344662593 1.5000000000000904
    vertex 186.79733150196887 863.9730344662593 2.5000000000000897
  endloop
endfacet
endsolid 12_4_grid
